<svg width="260" height="30" viewBox="0 0 260 30" fill="none" xmlns="http://www.w3.org/2000/svg">
<g clip-path="url(#clip0_1075_6155)">
<path d="M6.85291 14.9144L3.46943 18.2738L0.0859375 14.9144L3.46943 11.555L6.85291 14.9144ZM15.1072 6.71887L20.9074 12.5148L24.2909 9.15537L18.4906 3.35943L15.1072 0L11.7236 3.35943L5.88621 9.15537L9.26968 12.5148L15.1072 6.71887ZM26.7449 11.555L23.3614 14.9144L26.7449 18.2738L30.1283 14.9144L26.7449 11.555ZM15.1072 23.073L9.30688 17.314L5.88621 20.6734L11.6865 26.4324L15.07 29.7919L18.4535 26.4324L24.2909 20.6734L20.9074 17.314L15.1072 23.073ZM15.1072 18.2738L18.4906 14.9144L15.1072 11.555L11.7236 14.9144L15.1072 18.2738ZM50.9126 18.6061V18.5692C50.9126 16.3911 49.7229 15.2836 47.8265 14.5452C49.0163 13.8807 49.983 12.8471 49.983 11.0012V10.9643C49.983 8.38013 47.901 6.71887 44.5548 6.71887H36.8952V23.073H44.7404C48.4586 23.073 50.9126 21.5963 50.9126 18.6061ZM46.3766 11.6288C46.3766 12.8471 45.3725 13.3639 43.7737 13.3639H40.4275V9.89372H43.9968C45.5215 9.89372 46.3766 10.4844 46.3766 11.5919V11.6288ZM47.3059 18.1631C47.3059 19.3813 46.3392 19.9351 44.7404 19.9351H40.4275V16.3542H44.6289C46.4882 16.3542 47.3059 17.0186 47.3059 18.1262V18.1631ZM58.4977 23.073V6.71887H54.891V23.073H58.4977ZM77.9804 23.073V6.71887H74.4111V16.7971L66.6775 6.71887H63.3312V23.073H66.9005V12.6994L74.8946 23.1099H77.9804V23.073ZM98.0585 23.073L90.9941 6.60812H87.6475L80.5834 23.073H84.2642L85.7885 19.4183H92.7415L94.2658 23.073H98.0585ZM91.4772 16.2434H87.0898L89.2837 10.9274L91.4772 16.2434ZM115.31 23.073V6.71887H111.741V16.7971L104.007 6.71887H100.661V23.073H104.23V12.6994L112.225 23.1099H115.31V23.073ZM134.05 20.4519L131.745 18.1262C130.443 19.3075 129.291 20.0458 127.431 20.0458C124.606 20.0458 122.672 17.7201 122.672 14.9144V14.8775C122.672 12.0718 124.68 9.78296 127.431 9.78296C129.068 9.78296 130.369 10.4844 131.633 11.6288L133.938 8.97078C132.414 7.45719 130.555 6.46045 127.431 6.46045C122.375 6.46045 118.843 10.2629 118.843 14.9144V14.9513C118.843 19.6398 122.449 23.3683 127.283 23.3683C130.443 23.3683 132.339 22.2608 134.05 20.4519ZM149.48 23.073V19.8613H140.557V16.428H148.327V13.2162H140.557V9.89372H149.368V6.68195H136.95V23.0361H149.48V23.073Z" fill="#F0B90B"/>
<path d="M162.238 10.9918C162.238 12.273 162.984 12.832 166.105 13.5774C169.552 14.416 171.346 15.6506 171.346 18.376C171.346 21.4509 168.947 23.2678 165.523 23.2678C163.03 23.2678 160.677 22.4059 158.721 20.6589L160.444 18.609C162.005 19.96 163.566 20.7287 165.592 20.7287C167.363 20.7287 168.481 19.9134 168.481 18.6556C168.481 17.4676 167.829 16.8386 164.8 16.1398C161.33 15.3012 159.373 14.2763 159.373 11.248C159.373 8.40615 161.702 6.49603 164.94 6.49603C167.316 6.49603 169.203 7.21815 170.857 8.54592L169.32 10.7123C167.852 9.61744 166.384 9.03509 164.894 9.03509C163.216 9.03509 162.238 9.89697 162.238 10.9918Z" fill="#C3C9D6"/>
<path d="M189.392 19.8902L191.255 21.4742L189.415 23.5241L187.458 21.777C186.084 22.7321 184.407 23.3144 182.497 23.3144C177.488 23.3144 173.994 19.5175 173.994 14.9052C173.994 10.293 177.535 6.44946 182.543 6.44946C187.551 6.44946 191.045 10.2464 191.045 14.8586C191.045 16.7222 190.44 18.4692 189.392 19.8902ZM185.338 19.8902L182.543 17.5142L184.383 15.4177L187.202 17.9801C187.761 17.1182 188.041 16.0466 188.041 14.9052C188.041 11.7139 185.734 9.0817 182.497 9.0817C179.259 9.0817 176.999 11.6673 176.999 14.8586C176.999 18.0499 179.305 20.6822 182.543 20.6822C183.615 20.6822 184.57 20.3793 185.338 19.8902Z" fill="#C3C9D6"/>
<path d="M208.203 6.72894V15.9767C208.203 20.8452 205.454 23.2911 201.192 23.2911C196.952 23.2911 194.25 20.8452 194.25 16.1165V6.72894H197.115V16C197.115 19.0282 198.676 20.6588 201.238 20.6588C203.777 20.6588 205.338 19.1214 205.338 16.1165V6.72894H208.203Z" fill="#C3C9D6"/>
<path d="M219.979 6.61249L227.153 23.0348H224.125L222.471 19.0981H214.761L213.084 23.0348H210.148L217.323 6.61249H219.979ZM221.423 16.5591L218.604 10.0367L215.809 16.5591H221.423Z" fill="#C3C9D6"/>
<path d="M243.786 23.0348H240.408L236.402 17.3511H232.814V23.0348H229.949V6.72894H237.217C240.967 6.72894 243.273 8.70894 243.273 11.9002C243.273 14.6024 241.666 16.2329 239.383 16.8619L243.786 23.0348ZM240.362 12.0633C240.362 10.2696 239.104 9.33788 236.984 9.33788H232.814V14.812H237.007C239.057 14.812 240.362 13.7405 240.362 12.0633Z" fill="#C3C9D6"/>
<path d="M258.873 6.72894V9.2913H249.648V13.5308H257.825V16.0932H249.648V20.4725H258.989V23.0348H246.783V6.72894H258.873Z" fill="#C3C9D6"/>
</g>
<defs>
<clipPath id="clip0_1075_6155">
<rect width="259.059" height="30" fill="white" transform="translate(0.0859375)"/>
</clipPath>
</defs>
</svg>
