<?xml version="1.0" encoding="UTF-8"?>
<svg  width="300" height="79" id="Layer_1" xmlns="http://www.w3.org/2000/svg" version="1.1" viewBox="0 0 3918.2 1030.7">
  <!-- Generator: Adobe Illustrator 29.0.1, SVG Export Plug-In . SVG Version: 2.1.0 Build 192)  -->
  <defs>
    <style>
      .st0 {
        fill: #fff;
      }
    </style>
  </defs>
  <path class="st0" d="M515.3,44.5c-7.1.7-14.1,1.3-21.2,1.7l-13.6,1.7c-5.5.3-10.9,1.1-16.1,2.5h-2.5l-6.8,1.7-6.8.8h-1.7c-.8-.8-1.7,0-2.5.8l-8.5,1.7-6.8,1.7h-1.7l-1.7.8-5.9,1.7-8.5,2.5-4.2.8-3.4,1.7-3.4.8h-.8l-5.9,1.7-5.1,1.7-1.7.8h-1.7l-2.5,1.7-4.2.8-4.2,1.7-5.1,1.7-2.5,1.7-7.6,2.5-5.9,2.5-3.4,1.7-.8.8-2.5.8-3.4.8-1.7,1.7-1.7.8-4.2,1.7-3.4.8-7.6,5.1-2.5.8-5.9,3.4-4.2,1.7-.8.8-.8.8-2.5.8-2.5,1.7-2.5.8-9.3,5.1-2.5,2.5-.8.8-4.2,2.5-4.2,2.5-3.4,1.7-4.2,2.5-.8.8-1.7,2.5-6.8,3.4-5.9,4.2-1.7,2.5-.8,2.5-.8-.8c1.7-2.5-1.7-.8-5.1,2.5l-5.1,4.2-3.4,2.5-3.4,2.5c-28.7,26-55.1,54.4-79,84.9l-5.1,5.1-3.4,5.9-1.7,1.7-.8,1.7-.8,1.7-5.9,7.6-.8,2.5-1.7,3.4-1.7.8-.8,1.7-2.5,5.1-2.5,4.2-.8.8-3.4,6.8-.8,1.7-.8.8-1.7,2.5-6.8,13.6-2.5,4.2-1.7,5.1v1.7c-.8,0-1.7.8-5.9,8.5l-1.7,5.9-1.7,3.4-.8.8v.8l-.8,2.5-2.5,5.9c-3,5.6-5.3,11.6-6.8,17.8l-.8,3.4-1.7,4.2-1.7,5.1v2.5l-.8.8-1.7,5.9-1.7,5.1c-.8,0-2.5,7.6-1.7,10.2l-1.7,1.7v2.5l-.8,1.7-1.7,7.6-1.7,6.8v5.1c-.8,0-1.7,1.7-2.5,5.9l-.8,6.8v1.7c.8.8,0,2.5-.8,2.5l-1.7,12.7-1.7,11.9-.8,5.1v5.9c-1.7,36.5-.9,73.1,2.5,109.6.8,5.9,1.7,8.5,2.5,8.5l.8,2.5c-.8,2.5,1.7,19.5,2.5,20.4l2.5,11.9.8,3.4,1.7,5.9c.8,5.1,1.7,6.8,3.4,7.6l3.4,1.7,1.7.8,1.7.8,1.7.8c0,.8-1.7.8-6.8-1.7h-3.4.8l1.7,5.9,1.7,5.1.8.8v2.5l1.7,5.1,1.7,5.1,1.7,5.1,2.5,5.1,1.7,4.2c0,1.7.8,2.5,1.7,2.5l.8,3.4,1.7,5.9,1.7,3.4.8,3.4,1.7,4.2c0,1.7.8.8,3.4-1.7l2.5-1.7-1.7,2.5c-3.4,2.5-3.4,3.4-.8,5.9l.8,2.5.8,2.5,1.7,1.7v-1.7l.8-1.7v3.4q-.8,2.5.8,5.9l2.5,4.2,2.5,5.9,4.2,6.8,3.4,6.8,2.5,4.2,2.5,3.4.8,3.4.8.8c.8,0,1.7.8,1.7,2.5l2.5,2.5.8.8,3.4,6.8,1.7,1.7,2.5,5.1,1.7,2.5,5.1,7.6,5.9,8.5,3.4,4.2,4.2,5.1,2.5,2.5,2.5,4.2,9.3,11c3.7,3.7,7.1,7.7,10.2,11.9l11.9,11,11.9,12.7,5.1,4.2c9.1,8.2,18.8,15.9,28.9,22.9,1.7-1.7.8-3.4-1.7-4.2-2.5,0-4.2-1.7-4.2-2.5h3.4c2.5,0,4.2.8,5.1,2.5v4.2l-1.7,2.5,4.2,3.4,5.1,4.2,1.7.8,5.9,4.2,6.8,4.2,3.4,2.5,3.4,1.7,1.7,1.7,5.1,2.5,3.4,2.5,1.7,1.7,3.4,1.7h.8l1.7-1.7c1.7,0,2.5,1.7.8,1.7-1.7.8.8,2.5,5.1,5.1,6.2,2.7,12.1,5.8,17.8,9.3l.8.8,3.4,1.7,3.4,1.7,4.2,2.5,4.2,1.7,2.5,1.7c2.5,0,7.6,2.5,13.6,5.9,5.1,1.7,5.9,2.5,5.9.8l.8-1.7.8,1.7c-.8,1.7.8,2.5,3.4,2.5l2.5,1.7,2.5.8,4.2,1.7,5.9,2.5,4.2.8.8.8h.8l5.1,1.7,5.9,2.5,5.9,1.7,3.4.8h2.5l2.5.8,3.4.8,3.4.8,1.7.8,2.5.8,8.5,1.7,10.2,2.5h4.2c0,.8,1.7,1.7,5.9,2.5l5.9.8,2.5.8h3.4l11.9,1.7,11.9,1.7c44.2,3.6,88.6,2.5,132.5-3.4h3.4l2.5-.8,7.6-1.7,9.3-1.7,9.3-1.7,10.2-2.5,5.9-1.7,4.2-1.7,7.6-1.7c4.1-.9,8.1-2.3,11.9-4.2l3.4-.8,3.4-.8.8-.8,3.4-.8,5.1-1.7,5.1-2.5c3.4-.8,5.9-1.7,15.3-6.8l5.1-1.7,2.5-.8,5.1-2.5,3.4-1.7.8-.8,8.5-3.4,2.5-1.7,11.9-5.9,3.4-1.7c7.4-3.8,14.5-8,21.2-12.7l5.9-3.4.8-1.7h.8l3.4-1.7,3.4-1.7,8.5-7.6h1.7l1.7-.8c0-.8.8-1.7,2.5-1.7l2.5-3.4.8-.8c1.7,0,8.5-4.2,8.5-5.9l1.7-.8,3.4-1.7,2.5-2.5,7.6-5.9,6.8-6.8,4.2-3.4,5.1-4.2,1.7-1.7,1.7-2.5c8.1-6.6,15.5-14,22.1-22.1l1.7-1.7,2.5-3.4,4.2-4.2h.8l.8-.8,3.4-5.1c2.5-1.7,3.4-3.4,2.5-4.2l-.8-4.2,1.7,1.7.8,1.7,4.2-4.2,2.5-2.5,1.7-2.5c0-.8,2.5-5.1,6.8-9.3l3.4-5.1,4.2-5.9,5.1-6.8,4.2-5.9,2.5-5.1,1.7-1.7.8-.8c-.8-.8,0-2.5.8-3.4l1.7-2.5,1.7-2.5v-2.5l.8-2.5.8,1.7.8-.8,2.5-4.2,1.7-3.4,5.1-7.6c.8-3.4,2.5-5.9,3.4-5.9l1.7-4.2,2.5-4.2,1.7-3.4.8-3.4.8-.8v-3.4l2.5-1.7.8-2.5,1.7-4.2,2.5-5.1.8-2.5.8-2.5.8-2.5.8-1.7,1.7-3.4,2.5-7.6,2.5-5.9.8-2.5.8-.8v-1.7l1.7-5.1,1.7-5.1,1.7-5.1,1.7-6.8c1.7,0,0-1.7-1.7-.8l-.8-.8.8-3.4.8-.8.8,1.7.8,1.7,1.7-5.9,1.7-6.8,1.7-5.9,1.7-6.8v-2.5c-.8-.8,0-2.5.8-2.5v-5.1l1.7-5.9,1.7-5.9,1.7-14.4,2.5-15.3.8-15.3.8-12.7c2.1-61.9-6.5-123.6-25.5-182.6l-1.7-3.4-1.7-5.9-1.7-4.2-.8-2.5-1.7-2.5c0-1.7-2.5-9.3-7.6-17.8l-2.5-6.8-.8-2.5-.8-.8v-.8l-1.7-3.4-1.7-3.4-2.5-4.2-1.7-4.2-5.1-8.5-1.7-2.5-.8-1.7-.8-1.7-.8-1.7-2.5-5.1-2.5-4.2-2.5-4.2-4.2-5.9-3.4-5.9-1.7-3.4-.8-.8-1.7-1.7-1.7-2.5-.8-.8-2.5-4.2-2.5-3.4-1.7-2.5-1.7-2.5-1.7-1.7-1.7-1.7-4.2-5.9-3.4-5.1-2.5-2.5c-1.7-.8-1.7-1.7-1.7-2.5l-3.4-3.4-3.4-4.2c0-1.7-5.9-5.9-7.6-5.9l-1.7-.8.8-.8h1.7l-7.6-6.8c-.8,0-3.4-2.5-2.5-3.4,0-.8-5.9-6.8-6.8-5.9l-1.7-.8-.8-1.7c.8-.8-5.1-6.8-6.8-6.8l-.8-.8c.8-1.7-7.6-9.3-8.5-8.5-.8,1.7-1.7.8-1.7-.8l-3.4-4.2q-3.4-3.4-4.2-1.7t-.8-.8c0-1.7-3.4-6.8-5.1-6.8l-2.5-1.7c-4.5-4.1-9.3-7.8-14.4-11l-3.4-2.5-1.7-1.7-.8-.8-4.2-2.5-4.2-2.5-1.7-1.7-2.5-1.7-1.7-.8c-3.7-3.6-8-6.5-12.7-8.5l-5.1-1.7h-.8c.8-.8-8.5-7.6-12.7-9.3l-3.4-1.7-.8-.8-3.4-1.7-3.4-1.7h-.8l-.8-.8-4.2-2.5-3.4-1.7-4.2-1.7-3.4-1.7-4.2-2.5c-1.7-1.7-3.4-1.7-4.2-1.7l-2.5-1.7-1.7-.8-3.4-.8-5.1-1.7-.8-.8-3.4-.8-2.5-.8v-.8l-4.2-1.7-5.9-2.5-2.5-.8-.8-.8c-.8.8-2.5,0-4.2-.8l-3.4-.8h-.8l-1.7-.8-1.7-.8-5.1-1.7-7.6-2.5-6.8-1.7-5.1-1.7-6.8-1.7-5.9-1.7-1.7-.8-.8.8-.8.8-.8-.8-6.8-2.5-7.6-1.7c-.8-1.7-2.5-.8-1.7,0l-.8,1.7-1.7-1.7q-.8-1.7-4.2-1.7h-3.4l-2.5-.8-2.5-.8h-3.4l-2.5-.8-13.6-1.7-13.6-1.7c-11.2-1.8-22.6-2.3-34-1.7.8-.8-.8-.8-12.7-.8l-25.5.8ZM674.1,75c-.8,1.7-5.1,4.2-4.2,2.5l5.1-5.1-.8,1.7v.8ZM630.8,75.9l-5.9,2.5c-.8,0,3.4-3.4,5.1-3.4l.8.8ZM693.7,76.7l-1.7.8v-.8c.8-1.7,2.5-1.7,1.7,0ZM587.5,81l-4.2,4.2c-1.7.8-.8,1.7,1.7,1.7l6.8.8q4.2,0,4.2-1.7l.8-2.5.8,1.7c-.8,2.5.8,3.4,5.9,3.4l3.4.8h2.5l3.4.8,9.3,1.7,8.5,1.7,2.5-.8,1.7-1.7v1.7q0,1.7,5.9,3.4l7.6,1.7h3.4l1.7.8,4.2.8,3.4,1.7,1.7.8h2.5l1.7.8,3.4.8,3.4.8.8.8,3.4,1.7,5.9,1.7,5.9,1.7,5.9,2.5,5.1,1.7,4.2,1.7,2.5.8,6.8,3.4,6.8,2.5,2.5.8.8.8,2.5.8,3.4,1.7,2.5.8,3.4,1.7,4.2,2.5,4.2,2.5,1.7.8,1.7.8,4.2,2.5,5.1,2.5,1.7,1.7.8.8,3.4,1.7,2.5.8h.8l6.8,5.1,1.7.8.8.8,3.4,1.7c1.7,1.7,3.4,1.7,4.2,1.7s1.7,0,.8.8c0,1.7,3.4,4.2,5.1,4.2l4.2,3.4,5.1,4.2,3.4,1.7c8.8,8.5,18.2,16.5,28,23.8l3.4,2.5.8-1.7,1.7,3.4c8,9.5,16.8,18.3,26.3,26.3-.8,0,0,1.7,2.5,3.4l3.4,4.2.8.8.8.8c4.4,4.9,8.7,10,12.7,15.3,3.4,4.2,4.2,4.2,5.1,3.4.8-1.7,1.7-.8.8,1.7v2.5l.8.8,6.8,9.3.8.8c0,2.5,3.4,6.8,4.2,5.9l.8.8,2.5,5.9.8.8,1.7,4.2,3.4,4.2c.8,2.5,3.4,3.4,3.4,1.7l.8-.8.8,1.7-1.7,1.7v1.7l2.5,5.1,2.5,2.5,2.5,4.2,5.1,10.2.8,1.7,1.7,3.4,3.4,6.8,2.5,5.1,1.7,3.4,4.2,11,3.4,8.5,1.7,3.4.8.8.8,2.5.8,5.1,1.7,3.4,1.7,4.2c.9,3.5,2,6.9,3.4,10.2l.8,5.1,1.7,5.1,2.5,8.5,1.7,5.9,1.7,6.8,1.7,7.6.8,4.2,3.4,19.5,1.7,11.9c.2,6.8.7,13.6,1.7,20.4l.8,6.8c.7,28.3-.2,56.7-2.5,84.9l-1.7,13.6-3.4,17.8-.8,4.2-1.7,6.8-1.7,7.6v2.5l.8,3.4h-.8q-1.7-1.7-1.7,1.7v4.2q.8.8.8-.8l.8-2.5c1.7,0,.8,4.2,0,5.9-1.7.8-2.5.8-2.5-.8l-.8-.8v1.7l-.8,1.7-.8,3.4-2.5,5.9-.8,2.5v1.7l-1.7,5.1-1.7,5.1-1.7,3.4-.8,4.2-.8,3.4-.8.8-1.7,2.5-1.7,5.1-3.4,6.8-3.4,8.5-1.7,4.2-1.7,4.2-1.7,3.4-.8,1.7-11.9,22.1-4.2,6.8-1.7,3.4-.8.8-.8.8-2.5,4.2-2.5,5.1-1.7,1.7-.8,1.7-2.5,3.4-1.7,3.4-1.7,1.7c-1.7,1.7-2.5,4.2-2.5,5.9s0,1.7-.8.8l-4.2,3.4q-2.5,3.4-1.7,5.1,1.7.8,0,.8c-1.7,0-7.6,5.1-8.5,8.5l-.8.8-2.5,1.7-4.2,5.9-3.4,4.2c-25.8,27-54,51.7-84.1,73.9l-4.2,2.5-.8.8-1.7,1.7-4.2,1.7-4.2,3.4c-1.7,0-2.5.8-2.5,1.7l-.8.8-5.1,2.5-4.2,2.5-2.5.8-4.2,3.4-10.2,5.1-4.2,1.7-4.2,2.5-3.4,1.7-19.5,9.3h-3.4l-.8.8-4.2,1.7-5.1,2.5-3.4.8-3.4.8-3.4,1.7h-1.7l-3.4,1.7-1.7.8q0,1.7-1.7.8h-3.4l-4.2,1.7-3.4.8-4.2.8q-1.7,0-.8.8c.8.8.8,1.7-1.7,1.7-5.1-.8-6.8,0-6.8,1.7h-.8l-1.7-.8c-.8,0-1.7.8-.8,1.7l-.8.8c-2.5-.8-8.5,0-7.6,1.7h-7.6l-2.5.8-9.3,1.7-8.5,1.7c-12.6,2.2-25.4,3.7-38.2,4.2-31.7,1.6-63.6.4-95.1-3.4h-4.2l-4.2-.8-5.1-.8c-3.4-.8-4.2-.8-4.2.8s0,.8-1.7-.8l-4.2-1.7-3.4-.8-1.7-.8h-3.4l-5.1-1.7-5.9-1.7-6.8-1.7-6.8-.8-2.5-.8-1.7-.8-5.9-1.7-5.1-1.7-3.4-1.7-5.9-1.7-5.9-2.5-5.1-1.7-5.9-2.5-5.1-1.7-.8-.8h-2.5l-7.6-2.5-4.2-2.5-6.8-3.4-3.4-1.7-.8-.8h-.8l-3.4-1.7-3.4-1.7-2.5-1.7-2.5-.8-1.7-.8-1.7-.8-10.2-5.9-4.2-2.5-1.7-.8-2.5-1.7-1.7-1.7-4.2-2.5-5.1-2.5-1.7-1.7-.8-.8-3.4-1.7-3.4-1.7h-1.7l-15.3-12.7-1.7-1.7-1.7-1.7-5.9-4.2-6.8-4.2-1.7-2.5-1.7-1.7-7.6-6.8-6.8-5.1-1.7-.8c0-1.7-5.9-7.6-7.6-7.6l-.8-1.7-1.7-.8-.8-.8c0-1.7-4.2-5.9-5.1-5.1l-.8-.8-5.1-6.8-6.8-5.9c-1.7.8-2.5,0-.8-1.7v-.8l-1.7-2.5-1.7-1.7c-1.7,0-3.4-2.5-3.4-3.4l-3.4-5.1-4.2-5.9-1.7-1.7-1.7-1.7-3.4-4.2c-2.5-3.4-4.2-4.2-4.2-.8l-.8,1.7c-1.7,1.7-1.7,0,0-3.4l1.7-3.4-3.4-3.4-2.5-3.4-3.4-5.9-7.6-12.7-1.7-1.7-1.7-2.5-1.7-3.4-1.7-3.4-2.5-4.2-2.5-4.2-.8-.8-.8-.8-3.4-7.6-1.7-3.4-1.7-3.4-.8-.8v-.8l-1.7-3.4c-1.7-5.1-3.4-8.5-5.1-7.6l-.8-2.5v-2.5c-.8.8-1.7,0-1.7-2.5l-.8-3.4c-1.7-.8-1.7-1.7-.8-2.5v-.8l-1.7-3.4-1.7-4.2-.8-.8c.8-1.7-.8-4.2-5.9-5.9l-6.8-4.2c0-1.7,4.2,0,7.6,1.7l3.4,1.7-1.7-3.4-2.5-6.8-.8-4.2v-1.7l-.8-.8-.8-2.5-2.5-5.9-.8-4.2v-1.7l-1.7-5.9-2.5-8.5-1.7-6.8-.8-5.1-.8-2.5v-2.5l-.8-2.5q0-2.5-.8-1.7l-1.7.8c-1.7-.8-.8-3.4,0-3.4,1.7-.8,1.7-5.1.8-5.9v-2.5l-.8-2.5c-2.6-12.9-4-25.9-4.2-39.1-1.2-32.9.2-65.8,4.2-98.5l1.7-10.2,1.7-10.2v-1.7l.8-1.7,1.7-7.6,1.7-6.8,1.7-5.9,1.7-5.9.8-1.7v-2.5l1.7-5.9,1.7-5.1,1.7-4.2,1.7-6.8,2.5-5.9,1.7-5.1,2.5-5.1,1.7-5.1,1.7-4.2,2.5-5.9,1.7-2.5c10.8-22.4,22.7-44.2,35.7-65.4l3.4-4.2,6.8-9.3,6.8-9.3c-.8-.8,1.7-3.4,3.4-3.4l.8-.8,2.5-5.1,3.4-4.2.8-.8,1.7-.8,4.2-5.1c19.3-19.8,39.4-38.8,60.3-56.9l2.5-2.5,2.5-2.5,5.9-2.5c3.1-3.1,6.6-6,10.2-8.5l5.1-2.5,2.5-2.5,1.7-1.7c.8.8,5.1-1.7,7.6-4.2l5.1-2.5,2.5-1.7,2.5-1.7c3.4-.8,8.5-4.2,8.5-5.9h.8c0,.8,2.5,0,8.5-3.4l9.3-5.1,2.5-1.7,6.8-2.5,15.3-6.8,2.5-.8,4.2-1.7,5.9-2.5,5.9-2.5,4.2-.8,4.2-1.7,5.1-1.7,1.7-.8,3.4-.8,5.9-1.7,3.4-.8,7.6-2.5,7.6-1.7,7.6-1.7,7.6-1.7,18.7-3.4,5.1-.8,25.5-2.5,5.1-.8c1.7-1.7,71.3-1.7,73,0s2.5,0,5.9-4.2c5.9-5.9,8.5-6.8,3.4-.8ZM660.5,79.3c0,.8-1.7,1.7-1.7,0l2.5-1.7-.8.8v.8ZM577.3,82.7l-2.5,1.7,4.2-4.2-1.7,2.5ZM686.9,81.8l-5.9,5.9,3.4-3.4,2.5-2.5ZM636.8,83.5l-1.7.8c0-.8,1.7-3.4,2.5-2.5l-.8.8v.8ZM671.6,98.8l-2.5,1.7,1.7-2.5,1.7-.8-1.7,1.7h.8ZM755.7,113.3l-1.7,1.7q-2.5.8-.8-.8c1.7-1.7,2.5-2.5,2.5-.8ZM749.7,119.2l-2.5,2.5-3.4,1.7,2.5-2.5c2.5-2.5,3.4-2.5,3.4-1.7ZM294.5,150.6c-.8.8-.8,0-.8-.8l.8-.8v1.7ZM250.4,169.3c0,4.2-.8,4.2-.8,0-.8-2.5,0-4.2.8-4.2v4.2ZM250.4,179.5q-.8.8-.8-1.7,0-2.5.8-1.7v3.4ZM251.2,182.9h-.8l.8-1.7v1.7ZM251.2,186.3h-.8l.8-1.7v1.7ZM251.2,192.2c-.8.8-.8,0-.8-.8l.8-.8v1.7ZM978.2,543h-.8l.8-1.7v1.7ZM979,548.1q0,1.7-.8.8v-2.5l.8,1.7ZM95,570.1h-.8l-1.7-.8c0-1.7,1.7-.8,2.5,0v.8ZM85.6,618.6q-.8.8,0,0l.8-1.7-.8,1.7ZM95,623.6l-1.7,1.7q-.8.8,0,0l1.7-1.7ZM123,650.8h-.8l.8-1.7v1.7ZM95,654.2v.8l-2.5-.8h2.5ZM100.1,657.6c-.8,0-3.4-1.7-2.5-2.5l1.7.8.8,1.7ZM103.4,658.5l-.8.8-.8-.8.8-.8.8.8ZM121.3,661.9c-.8.8-.8,0-.8-.8l.8-.8v1.7ZM114.5,662.7l5.1,4.2-5.1-1.7-3.4-1.7-2.5-1.7q0-1.7,5.9.8ZM119.6,674.6c-.8.8-.8,0-.8-.8l.8-.8v1.7ZM118.7,678.8l-.8,1.7v-1.7c.8-1.7,1.7-1.7.8,0ZM116.2,695.8c0,3.4-.8,4.2-.8.8l1.7-3.4-.8,2.5ZM115.3,702.6l-.8,4.2c-.8,0-.8-2.5.8-5.9v1.7ZM113.6,713.7v-.8l.8-1.7-.8,2.5ZM216.4,824.9v5.9h-.8c-.8-1.7-1.7,0-.8,2.5s2.5,1.7,3.4-.8c0-3.4,1.7-5.9,1.7-3.4l1.7,2.5c1.7,1.7,1.7,4.2,0,11q-.8,2.5-.8-1.7c0-2.5,0-4.2-.8-3.4l-.8,1.7v1.7l-.8-.8c-.8-2.5-5.1-.8-4.2,1.7l-.8.8h-3.4l.8-.8.8-2.5-.8-2.5v-6.8l1.7-3.4c.8-.8,1.7-2.5.8-3.4l.8-.8h1.7c0-1.7.8-1.7.8-.8v3.4ZM207.9,831.7l-.8,2.5-.8,1.7c-.8-.8,0-3.4.8-4.2h.8ZM207.1,841.9c0,2.5,0,3.4.8,2.5v1.7l-1.7,3.4v.8c-.8.8-1.7-.8-.8-6.8,0-5.9,1.7-6.8,1.7-1.7ZM221.5,848.7l-4.2,4.2.8-1.7,1.7-3.4h.8l.8.8ZM547.6,965h-.8c0-.8.8-1.7,1.7-.8l-.8.8Z"/>
  <path class="st0" d="M527.2,178.6l-5.9.8c-17.2-.2-34.3,1.8-51,5.9l-2.5.8-6.8,1.7-6.8,1.7-5.1,1.7c-2.5,0-3.4,0-2.5.8l.8.8h-7.6l-5.9,2.5-5.1,1.7-4.2,1.7-5.1,2.5-4.2,1.7c-2.5,0-3.4,0-2.5.8l.8,1.7-1.7-.8c-.8-.8-2.5,0-5.9,1.7l-5.1,1.7-1.7.8-.8.8-3.4,1.7-3.4,1.7h-.8l-.8.8-3.4,1.7-3.4,1.7-4.2,1.7-4.2,2.5-4.2,2.5c-1.7,1.7-3.4,1.7-4.2,1.7l-3.4,2.5-5.1,2.5-1.7,1.7-1.7,1.7-2.5,1.7-4.2,2.5-9.3,5.9-6.8,5.1-1.7,1.7c-.8,1.7-1.7,2.5-3.4,2.5l-1.7,2.5-.8.8-2.5,1.7-1.7,1.7-3.4,3.4-1.7.8c-24,20.9-44.9,45.3-62,72.2l-3.4,5.9-1.7,4.2-1.7,1.7-1.7,2.5-.8,2.5-.8.8-.8.8v.8c1.7,1.7.8,2.5,0,2.5l-3.4,2.5q-1.7,2.5-.8,3.4c1.7,0,2.5,2.5.8,2.5l-.8-.8-.8-.8-.8,1.7-.8,1.7-2.5,4.2-1.7,4.2-3.4,7.6-4.2,8.5v3.4l-.8.8-.8,2.5-2.5,5.9-2.5,6.8-.8,4.2-.8.8v.8l-1.7,4.2-1.7,6.8v5.1c-.8,0-1.7.8-2.5,4.2l-.8,4.2v2.5c.8.8,0,2.5-.8,2.5l-1.7,9.3-1.7,8.5-.8,3.4v5.1c-10.6,89.5,13.4,179.8,67.1,252.2l4.2,1.7-1.7.8c-.8,0-.8.8,1.7,2.5l3.4,3.4,6.8,8.5,6.8,7.6c6.3,7.3,13.1,14.1,20.4,20.4l19.5,16.1.8-1.7,2.5,4.2c-.8.8,0,.8.8,1.7l3.4,2.5,4.2,1.7.8,1.7.8.8c.8-.8,3.4.8,6.8,3.4l6.8,5.1,1.7.8,6.8,4.2,3.4,1.7,7.6,5.1,4.2,2.5,5.1,1.7,4.2,2.5c10,5.5,20.6,10,31.4,13.6l4.2,1.7,5.1,1.7,5.9,1.7,1.7.8h.8l5.9,1.7,5.1,1.7,7.6,1.7,5.9,1.7,2.5.8h2.5l8.5,1.7,8.5,1.7,12.7,1.7,13.6,1.7c27.2,0,54.4-1.2,81.5-3.4l9.3-1.7,9.3-1.7,2.5-.8h1.7l5.9-1.7,6.8-1.7,5.1-1.7,2.5-.8v-.8h.8c.8.8,5.1,0,6.8-.8l5.1-1.7,4.2-1.7,1.7-.8h1.7l2.5-1.7,6.8-1.7,6.8-3.4,3.4-1.7.8-.8,5.1-.8,20.4-11,7.6-4.2,1.7-.8.8-.8c.8.8,5.1-2.5,5.1-4.2-.8-.8,0-.8.8-.8,2.5.8,5.9-.8,5.9-1.7l3.4-2.5,4.2-2.5,2.5-1.7.8-2.5c0-1.7,1.7-2.5,2.5-.8l3.4-1.7c1.7-.8,2.5-2.5,1.7-3.4,0-.8.8-1.7,2.5,0,0,.8.8.8,1.7-.8l1.7-1.7,6.8-5.1c7.9-7.7,16.1-15.1,24.6-22.1l6.8-6.8,3.4-4.2,13.6-16.1,2.5-2.5,2.5-2.5,1.7-2.5,1.7-2.5,4.2-6.8c.8-2.5,3.4-3.4,3.4-4.2l3.4-5.1,4.2-5.9,3.4-5.1c4.2-5.5,7.6-11.5,10.2-17.8l5.9-12.7c3-6.9,6.1-13.7,9.3-20.4l.8-4.2v-.8c.8,0,1.7-.8,1.7-3.4l1.7-3.4v-.8l.8-2.5,1.7-5.1,1.7-3.4.8-1.7,2.5-8.5v-2.5l.8-1.7c.8-1.7,2.5-11.9,1.7-13.6l.8-.8c1.7.8,1.7,0,2.5-3.4.6-4.5.9-9,.8-13.6.8,2.5,1.7.8.8-2.5l.8-2.5,2.5-25.5.8-5.1.8-22.1c.4-8.8-.1-17.6-1.7-26.3-.2-9.4-1.3-18.8-3.4-28l-2.5-14.4v-2.5l-.8-2.5-1.7-7.6-1.7-5.9-1.7-7.6-2.5-7.6-1.7-3.4-1.7-6.8-1.7-5.9-5.9-11.9v-3.4l-.8-.8-1.7-3.4-1.7-3.4-1.7-4.2-2.5-4.2-1.7-3.4-1.7-2.5-.8-2.5-1.7-3.4-.8-2.5-.8-.8-5.1-9.3-3.4-5.1-1.7-3.4-1.7-1.7-.8-1.7-2.5-.8c-1.7,0-2.5-1.7-.8-1.7.8-.8-1.7-5.9-2.5-5.9l-2.5-2.5c0-1.7-2.5-5.1-5.1-7.6l-3.4-5.1-1.7-1.7-1.7-1.7c-15.7-18.3-33-35-51.8-50.1h-1.7l-.8-2.5v-1.7l-.8-.8-6.8-5.1c-4.2-3.4-5.9-4.2-6.8-3.4l-1.7-.8c.8-.8-.8-1.7-2.5-3.4l-2.5-.8-2.5.8q-1.7,0-.8-.8c2.5-1.7,1.7-2.5-.8-4.2-6.9-3.8-13.7-7.8-20.4-11.9l-5.1-2.5-3.4-1.7-3.4-1.7-3.4-1.7-.8-.8-7.6-3.4-3.4-1.7-5.9-2.5-11.9-3.4c0,.8-.8,0,0,0,0-1.7-.8-1.7-4.2-2.5l-5.1-1.7-4.2-1.7-5.9-1.7h-.8l-1.7-.8-5.9-1.7-5.9-1.7-6.8-1.7-5.9-1.7h-3.4l-2.5-.8-5.9-1.7c-6.8,0-11-.8-11.9-1.7l-5.1-.8h-4.2c-.8-1.7-53.5-3.4-54.4-2.5ZM557.8,181.2l-1.7,1.7q-.8.8,0,0l1.7-1.7ZM585,185.4c0,1.7-3.4,4.2-3.4,2.5l3.4-3.4v.8ZM553.5,187.1h-.8l.8-1.7v1.7ZM547.6,192.2l-.8.8-.8-.8,1.7-.8v.8ZM577.3,193.1l-.8,1.7-.8-.8.8-.8h.8ZM552.7,197.3l-3.4,3.4c-.8,0,0-1.7,2.5-3.4l3.4-3.4-2.5,3.4ZM544.2,195.6v.8l-.8.8-.8.8c-.8,2.5-6.8,8.5-6.8,7.6-.8-.8.8-5.1,1.7-5.1l3.4-3.4,4.2-2.5-.8.8ZM569.7,200.7l-3.4,3.4,5.9-5.9-2.5,3.4v-.8ZM543.4,207.5l-1.7.8.8-.8c1.7-1.7,2.5-1.7.8,0ZM562.9,208.4l-3.4,2.5,4.2-5.1-.8,2.5ZM547.6,222.8c-2.5,4.2-5.1,5.9-5.1,4.2l8.5-7.6-3.4,3.4ZM688.6,232.1l-1.7,2.5-1.7,1.7,1.7-5.1c.8-1.7,2.5-2.5,2.5-1.7l-.8,2.5ZM483.1,235.5h24.6v85.8h36.5v-41.6c.9-14.7.9-29.5,0-44.2h53.5v43.3q0,43.3,3.4,44.2c30.9,2.8,60.9,11.7,88.3,26.3l2.5,2.5c2.5.8,4.2,1.7,11,7.6l3.4,2.5,1.7,1.7c.8,2.5,5.1,6.8,6.8,6.8l.8,1.7,1.7,3.4c4,5.6,6.9,12,8.5,18.7l.8.8v1.7l.8,1.7.8,1.7.8,14.4c.7,12.3-.8,24.7-4.2,36.5l-2.5,5.9v3.4l-1.7.8-.8,2.5-.8,1.7-1.7,1.7-1.7,3.4-.8,1.7-1.7,1.7c-6,7.8-13.2,14.7-21.2,20.4l-6.8,5.1,1.7.8,2.5,1.7,5.1,1.7,3.4.8,3.4,1.7,3.4,1.7.8.8,13.6,7.6,4.2,2.5.8,1.7.8.8c.8,0,9.3,8.5,11.9,12.7q2.5,2.5,3.4,1.7c0-1.7.8-1.7,1.7-.8q.8,1.7-.8,1.7t.8,3.4l2.5,5.1,1.7,2.5,1.7,2.5.8,2.5,2.5,5.1,1.7,5.1v.8l.8,2.5c4.2,20.5,3.9,41.6-.8,62v3.4q.8.8-.8.8l-.8,3.4-2.5,5.1-.8,3.4-1.7,4.2-2.5,5.9-2.5,3.4-.8,1.7-.8,3.4-3.4,4.2c-1.7,3.4-17,19.5-21.2,22.9l-5.9,3.4-3.4,3.4-.8.8c0-1.7-.8-1.7-2.5,0l-2.5.8-5.9,2.5-15.3,6.8c-2.5,0-3.4.8-3.4,1.7h-2.5l-8.5,1.7-8.5,1.7-2.5.8h-2.5c-16.9,2.6-33.9,3.7-51,3.4-1.7,1.7-1.7,4.2-1.7,44.2v43.3h-51v1.7q0,1.7-.8.8l-.8-3.4-.8-43.3v-43.3l-17.8-.8-17.8.8-.8,44.2v43.3h-52.7v-44.2l-.8-43.3-49.3-.8c-17.6-.4-35.1-.1-52.7.8l.8-55.2,22.9-.8q22.1,0,26.3-1.7c4.2-2.5,9.3-7.6,9.3-9.3l1.7-3.4c1.8-84.3,2.4-168.7,1.7-253.1-.8-4.2-1.7-5.9-3.4-7.6l-.8-2.5-1.7-1.7-2.5-1.7c0-1.7-5.9-3.4-9.3-3.4l-1.7-.8h-22.1l-23.8-.8c-1.7,0-1.7-1.7-1.7-27.2v-27.2h107v-43.3c0-38.2,0-43.3,1.7-43.3l26.3.8ZM730.2,244c-2.4,3.2-5.3,6.1-8.5,8.5l8.5-9.3v.8ZM400.7,245.7l-.8,2.5q-.8,2.5-.8,0l.8-2.5h.8ZM715.7,261.9l-4.2,3.4,1.7-1.7c3.4-3.4,5.9-5.1,2.5-1.7ZM731.9,261.9l-4.2,4.2,2.5-2.5,1.7-1.7ZM710.7,262.7l-1.7,2.5,3.4-4.2-1.7,2.5v-.8ZM724.2,271.2l-1.7.8.8-1.7c1.7-1.7,2.5-1.7.8.8ZM718.3,276.3c-3.4,3.4-4.2,3.4-.8,0l3.4-2.5-2.5,2.5ZM680.1,297.5l-.8.8-.8-.8,1.7-.8v.8ZM771.8,304.3l-.8.8h-.8l.8-.8h.8ZM731,334.1l-.8.8-.8-.8,1.7-.8v.8ZM292,518.3l-2.5,1.7c-.8-.8,1.7-3.4,2.5-3.4v1.7ZM783.7,526.8h-.8l.8-1.7v1.7ZM219.8,557.4l-.8,1.7v-1.7q1.7-1.7.8,0ZM764.2,614.3h-.8c0-.8.8-1.7,1.7-.8l-.8.8ZM264.8,624.5l-.8.8-.8-.8.8-1.7.8,1.7ZM766.7,632.1l-.8.8-.8-.8.8-.8.8.8ZM310.7,677.1l-.8.8-.8-.8,1.7-.8v.8ZM320,685.6l-.8.8-.8-.8.8-.8.8.8ZM322.6,687.3l-.8.8-.8-.8v-.8l.8.8h.8ZM325.1,691.6l-.8.8-.8-.8,1.7-.8v.8ZM346.3,712l-.8.8-.8-.8.8-1.7.8,1.7ZM298.8,731.5l-4.2,3.4,3.4-3.4,4.2-4.2-3.4,4.2ZM517.9,734q0,1.7-.8.8l-.8-1.7c.8-1.7,1.7-.8,1.7.8ZM534.9,744.2l-1.7.8-.8-.8,1.7-.8.8.8ZM433,789.2h1.7l.8.8c0,1.7-3.4.8-4.2-.8l.8-.8.8.8ZM472.9,807.1l-.8.8-.8-.8v-.8l.8.8h.8ZM382,809.6l-1.7.8c-.8,0-.8-.8.8-1.7,1.7-1.7,2.5-1.7.8.8Z"/>
  <path class="st0" d="M508.5,379.9l-.8,54.4v52.7h37.4c14.7-.4,29.5-1.2,44.2-2.5,5.1-1.7,12.7-5.9,17.8-9.3,1.7-2.5,4.2-4.2,5.1-4.2l1.7-1.7,3.4-4.2,2.5-5.1,1.7-3.4c2.5-2.5,3.4-6.8,4.2-12.7l.8-3.4v-20.4l-.8-2.5-3.4-9.3-1.7-3.4-2.5-2.5-.8-1.7c-.8-1.7-6.8-5.9-8.5-5.9l-2.5-2.5-3.4-1.7-2.5-.8c-.8-1.7-1.7-1.7-2.5-.8h-.8l-4.2-2.5-5.1-1.7-24.6-3.4-5.9-.8h-48.4ZM568,400.3l-.8.8h-.8l.8-.8h.8ZM566.3,409.6c-.8.8-.8,0-.8-.8l.8-.8v1.7ZM565.4,424.9l-.8,1.7v-3.4c0-3.4,1.7-1.7.8,1.7ZM564.6,431.7h-.8c0-.8.8-1.7,1.7-.8l-.8.8ZM554.4,444.5h-.8l.8-1.7v1.7ZM563.7,443.6l-.8.8-.8-.8,1.7-.8v.8ZM556.9,450.4l-.8.8-.8-.8-.8-2.5q0-1.7.8,0l1.7,2.5ZM540.8,447.9l-1.7,2.5-2.5,1.7,1.7-2.5,2.5-1.7ZM560.3,459.7c0,1.7-1.7.8-1.7-1.7l-.8-4.2.8,1.7,1.7,4.2ZM562,477.6q0,1.7-.8.8v-2.5l.8,1.7ZM570.5,481l-.8-1.7q-.8-.8,0,0l.8.8v.8ZM507.7,597.3l.8,58.6c28.9.8,57.8.3,86.6-1.7,5.1,0,9.3-.8,9.3-1.7l4.2-.8,5.1-1.7,2.5-.8,7.6-4.2.8-.8c0,1.7,10.2-6.8,14.4-11l5.1-7.6c0-1.7.8-2.5,1.7-2.5l1.7-4.2,1.7-3.4,1.7-5.1,1.7-6.8c.5-8.2.2-16.5-.8-24.6l-.8-1.7v-1.7l-.8-2.5-1.7-2.5-2.5-3.4-2.5-3.4-1.7-3.4-2.5-.8-2.5-1.7-3.4-1.7-.8-.8c0-.8-5.9-4.2-11-5.9l-3.4-1.7-5.1-1.7-5.9-1.7h-2.5l-1.7-.8c-2.5-1.7-22.9-2.5-58.6-2.5h-36.5v56.9ZM542.5,551.5h-.8l.8-1.7v1.7ZM511.9,560c-.8.8-.8,0-.8-1.7s0-1.7.8-.8v2.5ZM545.1,563.4q0,1.7-.8.8v-3.4l.8,2.5ZM525.5,590.5l-.8.8h-.8l.8-.8h.8Z"/>
  <g>
    <path class="st0" d="M1165.6,636.2v-291.5h99.9c33,0,58.1,6.6,75.3,19.8s25.8,32.9,25.8,59.1-3.6,25.4-10.8,36c-7.2,10.7-17.8,19-31.6,24.8,15.7,4.3,27.9,12.3,36.5,24.1,8.6,11.8,12.9,26,12.9,42.5,0,27.4-8.8,48.4-26.3,63.1-17.6,14.7-42.7,22-75.4,22h-106.3ZM1216.3,467.4h49.6c15.7,0,28.1-3.6,36.9-10.7,8.9-7.1,13.3-17.2,13.3-30.3s-4.1-24.8-12.3-31.2c-8.2-6.4-21-9.6-38.3-9.6h-49.2v81.9ZM1216.3,504.7v91.1h56.3c15.9,0,28.3-3.9,37.2-11.8,8.9-7.9,13.4-18.8,13.4-32.8,0-30.3-15.5-45.8-46.4-46.4h-60.5Z"/>
    <path class="st0" d="M1419.7,363.3c0-7.5,2.4-13.7,7.1-18.6,4.7-4.9,11.5-7.4,20.3-7.4s15.6,2.5,20.4,7.4c4.8,4.9,7.2,11.1,7.2,18.6s-2.4,13.4-7.2,18.3c-4.8,4.9-11.6,7.3-20.4,7.3s-15.6-2.4-20.3-7.3c-4.7-4.9-7.1-11-7.1-18.3ZM1471.3,636.2h-48.6v-216.6h48.6v216.6Z"/>
    <path class="st0" d="M1585.2,366.9v52.7h38.2v36h-38.2v120.9c0,8.3,1.6,14.2,4.9,17.9,3.3,3.7,9.1,5.5,17.5,5.5s11.3-.7,17-2v37.6c-11.1,3.1-21.8,4.6-32,4.6-37.4,0-56.1-20.6-56.1-61.9v-122.7h-35.6v-36h35.6v-52.7h48.6Z"/>
    <path class="st0" d="M1749.6,601.4c12.1,0,22.2-3.5,30.2-10.6,8-7.1,12.3-15.8,12.8-26.2h45.8c-.5,13.5-4.7,26.1-12.6,37.7-7.9,11.7-18.6,20.9-32,27.7-13.5,6.8-28,10.2-43.6,10.2-30.3,0-54.3-9.8-72.1-29.4-17.8-19.6-26.6-46.7-26.6-81.3v-5c0-33,8.8-59.4,26.4-79.2s41.6-29.7,72.1-29.7,46.7,7.5,63,22.5c16.2,15,24.7,34.7,25.5,59.2h-45.8c-.5-12.4-4.8-22.6-12.7-30.6-7.9-8-18.1-12-30.3-12s-27.9,5.7-36.4,17.1c-8.5,11.4-12.9,28.7-13,52v7.8c0,23.5,4.2,41,12.7,52.6,8.5,11.5,20.7,17.3,36.7,17.3Z"/>
    <path class="st0" d="M1866.1,525.9c0-21.2,4.2-40.3,12.6-57.4s20.2-30.1,35.4-39.2c15.2-9.1,32.7-13.7,52.5-13.7,29.2,0,53,9.4,71.2,28.2,18.2,18.8,28.1,43.8,29.5,74.9l.2,11.4c0,21.4-4.1,40.4-12.3,57.3-8.2,16.8-20,29.8-35.2,39-15.3,9.2-32.9,13.8-53,13.8-30.6,0-55-10.2-73.4-30.5-18.4-20.4-27.5-47.5-27.5-81.4v-2.4ZM1914.8,530.1c0,22.3,4.6,39.7,13.8,52.4s22,18.9,38.4,18.9,29.2-6.4,38.3-19.2c9.1-12.8,13.7-31.6,13.7-56.3s-4.7-39.2-14.1-52.1c-9.4-12.8-22.2-19.2-38.3-19.2s-28.5,6.3-37.8,18.9c-9.3,12.6-14,31.5-14,56.6Z"/>
    <path class="st0" d="M2108.7,363.3c0-7.5,2.4-13.7,7.1-18.6,4.7-4.9,11.5-7.4,20.3-7.4s15.6,2.5,20.4,7.4c4.8,4.9,7.2,11.1,7.2,18.6s-2.4,13.4-7.2,18.3c-4.8,4.9-11.6,7.3-20.4,7.3s-15.6-2.4-20.3-7.3c-4.7-4.9-7.1-11-7.1-18.3ZM2160.4,636.2h-48.6v-216.6h48.6v216.6Z"/>
    <path class="st0" d="M2258.5,419.6l1.4,25c16-19.4,37-29,63.1-29,45.1,0,68.1,25.8,68.9,77.5v143.1h-48.6v-140.3c0-13.7-3-23.9-8.9-30.5-5.9-6.6-15.6-9.9-29.1-9.9-19.6,0-34.2,8.9-43.8,26.6v154.2h-48.6v-216.6h45.8Z"/>
    <path class="st0" d="M2601.6,636.2h-50.4v-291.5h50.4v291.5Z"/>
    <path class="st0" d="M2704.3,419.6l1.4,25c16-19.4,37-29,63.1-29,45.1,0,68.1,25.8,68.9,77.5v143.1h-48.6v-140.3c0-13.7-3-23.9-8.9-30.5-5.9-6.6-15.6-9.9-29.1-9.9-19.6,0-34.2,8.9-43.8,26.6v154.2h-48.6v-216.6h45.8Z"/>
    <path class="st0" d="M3008.6,577.3c0-8.7-3.6-15.3-10.7-19.8-7.1-4.5-19-8.5-35.5-12-16.6-3.5-30.4-7.9-41.4-13.2-24.3-11.7-36.4-28.8-36.4-51s7.9-34.3,23.6-46.8c15.7-12.5,35.8-18.8,60.1-18.8s46.8,6.4,62.8,19.2c15.9,12.8,23.9,29.4,23.9,49.8h-48.6c0-9.3-3.5-17.1-10.4-23.3-6.9-6.2-16.2-9.3-27.6-9.3s-19.4,2.5-26.1,7.4c-6.7,4.9-10.1,11.5-10.1,19.8s3.1,13.3,9.4,17.4c6.3,4.1,19,8.3,38,12.5,19.1,4.2,34.1,9.2,44.9,15,10.9,5.8,18.9,12.8,24.2,20.9,5.3,8.1,7.9,18,7.9,29.6,0,19.5-8.1,35.3-24.2,47.3-16.2,12.1-37.3,18.1-63.5,18.1s-33.6-3.2-47.4-9.6c-13.9-6.4-24.7-15.2-32.4-26.4-7.7-11.2-11.6-23.3-11.6-36.2h47.2c.7,11.5,5,20.3,13,26.5s18.6,9.3,31.8,9.3,22.6-2.4,29.2-7.3c6.7-4.9,10-11.2,10-19.1Z"/>
    <path class="st0" d="M3098.9,363.3c0-7.5,2.4-13.7,7.1-18.6,4.7-4.9,11.5-7.4,20.3-7.4s15.6,2.5,20.4,7.4c4.8,4.9,7.2,11.1,7.2,18.6s-2.4,13.4-7.2,18.3c-4.8,4.9-11.6,7.3-20.4,7.3s-15.6-2.4-20.3-7.3c-4.7-4.9-7.1-11-7.1-18.3ZM3150.6,636.2h-48.6v-216.6h48.6v216.6Z"/>
    <path class="st0" d="M3194.4,526.3c0-33.4,7.7-60.2,23.2-80.4,15.5-20.2,36.2-30.3,62.3-30.3s41.5,8,55.7,24v-110.9h48.6v307.5h-44l-2.4-22.4c-14.5,17.6-34,26.4-58.3,26.4s-45.9-10.2-61.6-30.6c-15.7-20.4-23.5-48.2-23.5-83.3ZM3243.1,530.5c0,22,4.2,39.2,12.7,51.5,8.5,12.3,20.5,18.5,36.1,18.5s34.4-8.9,43.6-26.6v-92.5c-8.9-17.3-23.4-26-43.2-26s-27.9,6.2-36.4,18.7c-8.5,12.5-12.8,31.3-12.8,56.4Z"/>
    <path class="st0" d="M3530.3,640.2c-30.8,0-55.8-9.7-75-29.1-19.2-19.4-28.7-45.3-28.7-77.6v-6c0-21.6,4.2-40.9,12.5-58,8.3-17,20.1-30.3,35.1-39.7,15.1-9.5,31.9-14.2,50.4-14.2,29.5,0,52.3,9.4,68.4,28.2,16.1,18.8,24.1,45.4,24.1,79.9v19.6h-141.5c1.5,17.9,7.4,32,17.9,42.4,10.5,10.4,23.7,15.6,39.5,15.6s40.4-9,54.5-27l26.2,25c-8.7,12.9-20.3,23-34.7,30.1-14.5,7.1-30.7,10.7-48.7,10.7ZM3524.5,454.6c-13.3,0-24.1,4.7-32.3,14-8.2,9.3-13.4,22.4-15.7,39h92.7v-3.6c-1.1-16.3-5.4-28.6-13-36.9-7.6-8.3-18.2-12.5-31.6-12.5Z"/>
    <path class="st0" d="M3768.4,464c-6.4-1.1-13-1.6-19.8-1.6-22.3,0-37.3,8.5-45,25.6v148.1h-48.6v-216.6h46.4l1.2,24.2c11.7-18.8,28-28.2,48.8-28.2s12.7.9,17.2,2.8l-.2,45.6Z"/>
  </g>
</svg>