<svg width="88" height="30" viewBox="0 0 88 30" fill="none" xmlns="http://www.w3.org/2000/svg">
<g clip-path="url(#clip0_1075_6163)">
<path fill-rule="evenodd" clip-rule="evenodd" d="M0.181641 0.290625H6.05977C9.33164 0.290625 11.0379 1.97812 11.0379 4.05937C11.0379 5.49375 10.2316 6.46875 9.10664 6.975V7.0125C10.541 7.52813 11.3473 8.6625 11.3473 10.1156C11.3473 12.1875 9.75352 14.0062 6.29414 14.0062H0.181641V0.290625ZM5.87227 5.72812C6.84727 5.72812 7.28789 5.23125 7.28789 4.67813C7.28789 4.125 6.84727 3.60938 5.87227 3.60938H4.14727V5.71875H5.87227V5.72812ZM5.92852 10.6875C6.95977 10.6875 7.45664 10.1906 7.45664 9.55313C7.45664 8.91563 6.94102 8.41875 5.94727 8.41875H4.14727V10.6875H5.92852ZM12.191 8.42813V0.290625H16.1941V8.39062C16.1941 9.91875 16.9441 10.725 18.2285 10.725C19.5129 10.725 20.3191 9.91875 20.3191 8.37188V0.290625H24.341V8.42813C24.341 11.8781 22.0254 14.3625 18.2285 14.3625C14.4316 14.3625 12.191 11.8781 12.191 8.42813ZM34.541 0.95625V4.48125C33.6785 3.87187 32.2066 3.45 31.016 3.45C29.9285 3.45 29.3848 3.79688 29.3848 4.25625C29.3848 4.71563 29.9941 4.95 31.0723 5.34375C32.9098 5.99063 35.4035 6.85312 35.4035 9.76875C35.4035 12.375 33.4348 14.3063 29.9848 14.3063C28.2035 14.3063 26.5723 13.7906 25.5598 13.1156V9.40313C26.5535 10.2094 28.0535 10.8563 29.5066 10.8563C30.7348 10.8563 31.3066 10.3969 31.3066 9.88125C31.3066 9.21563 30.3691 8.925 29.2535 8.52188C27.7816 7.9875 25.4566 7.03125 25.4566 4.36875C25.4473 1.96875 27.341 0 30.716 0C32.2066 0 33.5473 0.384375 34.541 0.95625ZM36.4254 0.290625H40.4285V14.0062H36.4254V0.290625ZM54.6598 14.0156H50.8441L45.9035 6.65625H45.8848V14.0156H42.0879V0.290625H45.9035L50.8441 7.52813H50.8629V0.290625H54.6598V14.0156ZM56.3191 0.290625H65.7973V3.85312H60.3223V5.50313H65.2441V8.7375H60.3223V10.4438H65.7973V14.0062H56.3191V0.290625ZM75.8379 0.95625V4.48125C74.9754 3.87187 73.5035 3.45 72.3129 3.45C71.2254 3.45 70.6816 3.79688 70.6816 4.25625C70.6816 4.71563 71.291 4.95 72.3691 5.34375C74.2066 5.99063 76.7004 6.85312 76.7004 9.76875C76.7004 12.375 74.7316 14.3063 71.2816 14.3063C69.5004 14.3063 67.8691 13.7906 66.8566 13.1156V9.40313C67.8504 10.2094 69.3504 10.8563 70.8035 10.8563C72.0316 10.8563 72.6035 10.3969 72.6035 9.88125C72.6035 9.21563 71.666 8.925 70.5504 8.52188C69.0785 7.9875 66.7535 7.03125 66.7535 4.36875C66.7441 1.96875 68.6379 0 72.0129 0C73.5035 0 74.8441 0.384375 75.8379 0.95625ZM86.4316 0.95625V4.48125C85.5691 3.87187 84.0973 3.45 82.9066 3.45C81.8191 3.45 81.2754 3.79688 81.2754 4.25625C81.2754 4.71563 81.8848 4.95 82.9629 5.34375C84.8004 5.99063 87.2941 6.85312 87.2941 9.76875C87.2941 12.375 85.3254 14.3063 81.8754 14.3063C80.0941 14.3063 78.4629 13.7906 77.4504 13.1156V9.40313C78.4441 10.2094 79.9441 10.8563 81.3973 10.8563C82.6254 10.8563 83.1973 10.3969 83.1973 9.88125C83.1973 9.21563 82.2598 8.925 81.1441 8.52188C79.6723 7.9875 77.3473 7.03125 77.3473 4.36875C77.3379 1.96875 79.2316 0 82.6066 0C84.0973 0 85.4379 0.384375 86.4316 0.95625ZM8.96602 29.7094H12.9691V15.9938H8.96602V29.7094ZM27.2004 15.9938H23.3941V23.2313H23.3754L18.4348 15.9938H14.6191V29.7094H18.4254V22.35H18.4441L23.3848 29.7094H27.2004V15.9938ZM33.6504 15.6937C30.2754 15.6937 28.3816 17.6625 28.3816 20.0625C28.3816 22.725 30.716 23.6812 32.1785 24.2156C33.3035 24.6187 34.2316 24.9094 34.2316 25.575C34.2316 26.0906 33.6598 26.55 32.4316 26.55C30.9785 26.55 29.4785 25.9031 28.4848 25.0969V28.8094C29.4973 29.4844 31.1285 30 32.9098 30C36.3598 30 38.3285 28.0688 38.3285 25.4625C38.3285 22.5469 35.8348 21.675 33.9973 21.0375C32.9098 20.6531 32.3098 20.4281 32.3098 19.95C32.3098 19.4719 32.8629 19.1437 33.941 19.1437C35.1316 19.1437 36.6035 19.5656 37.466 20.175V16.65C36.4723 16.0781 35.1316 15.6937 33.6504 15.6937ZM39.266 29.7094H43.2691V15.9938H39.266V29.7094ZM48.9223 26.0906H49.691C51.7629 26.0906 53.1035 24.9188 53.1035 22.8563C53.1035 20.7938 51.7629 19.6031 49.691 19.6031H48.9223V26.0906ZM57.1535 22.8563C57.1535 26.9906 54.0316 29.7094 49.5504 29.7094H44.9191V15.9938H49.5504C54.0316 15.9938 57.1535 18.7313 57.1535 22.8563ZM58.2316 29.7094H67.7098V26.1469H62.2348V24.4406H67.1566V21.2062H62.2348V19.5563H67.7098V15.9938H58.2316V29.7094ZM74.0098 22.4719C75.0223 22.4719 75.8098 21.9937 75.8098 21.0375C75.8098 20.0812 75.0223 19.6031 73.991 19.6031H73.1473V22.4719H74.0098ZM80.5629 29.7094H75.8473L73.241 25.4719H73.1473V29.7094H69.1441V15.9938H74.0285C77.4598 15.9938 79.8504 17.5219 79.8504 20.7656C79.8504 22.05 79.2785 23.925 77.0004 24.8812L80.5629 29.7094Z" fill="#C3C9D6"/>
</g>
<defs>
<clipPath id="clip0_1075_6163">
<rect width="87.1875" height="30" fill="white" transform="translate(0.144531)"/>
</clipPath>
</defs>
</svg>
