<svg width="56" height="56" viewBox="0 0 56 56" fill="none" xmlns="http://www.w3.org/2000/svg">
<path d="M31.979 56.0001C31.5592 55.9994 31.1472 55.8862 30.786 55.6721L21.6241 50.2121C20.8749 49.7791 20.2291 49.1881 19.7319 48.4799C19.2347 47.7718 18.8979 46.9637 18.745 46.1121C18.587 45.2515 18.6196 44.3667 18.8406 43.5201C19.0616 42.6735 19.4656 41.8856 20.024 41.2121C20.59 40.5363 21.2991 39.9948 22.1 39.6266C22.9009 39.2584 23.7736 39.0728 24.6551 39.0831C25.767 39.0844 26.8596 39.3741 27.826 39.9241L29.664 40.9801V22.5001C29.6759 21.0903 30.1487 19.7231 31.01 18.6071C31.5667 17.916 32.2778 17.3654 33.0861 16.9994C33.8945 16.6334 34.7775 16.4624 35.664 16.5001C36.5506 16.4624 37.4336 16.6334 38.2419 16.9994C39.0503 17.3654 39.7614 17.916 40.318 18.6071C41.1794 19.7231 41.6521 21.0903 41.664 22.5001V33.2781L50.704 34.4151C52.2592 34.6194 53.6726 35.4246 54.6413 36.6582C55.6101 37.8919 56.0573 39.4558 55.8871 41.0151L54.457 53.9221C54.3935 54.4917 54.1229 55.0181 53.6966 55.4012C53.2704 55.7843 52.7182 55.9975 52.145 56.0001H31.979ZM23.623 44.1521C23.4978 44.3048 23.4064 44.4824 23.3547 44.673C23.303 44.8636 23.2922 45.063 23.323 45.2581C23.3579 45.449 23.4335 45.6301 23.5446 45.7892C23.6557 45.9483 23.7998 46.0816 23.967 46.1801L32.611 51.3331H50.048L51.263 40.5021C51.3018 40.153 51.2008 39.8028 50.982 39.5281C50.8768 39.3923 50.7454 39.279 50.5957 39.1948C50.4459 39.1106 50.2807 39.0573 50.11 39.0381H50.1031L39.029 37.6451C38.4639 37.5767 37.9434 37.304 37.5656 36.8783C37.1878 36.4525 36.9788 35.9033 36.9781 35.3341V22.5241C36.9491 21.3081 36.204 21.1671 35.645 21.1671C35.038 21.1671 34.345 21.3221 34.311 22.5241V45.0141C34.3106 45.4243 34.2028 45.8274 33.9982 46.183C33.7936 46.5386 33.4995 46.8345 33.145 47.0411C32.7906 47.2471 32.388 47.3557 31.9781 47.3561C31.5678 47.3558 31.1648 47.2471 30.81 47.0411L25.476 43.9621C25.2149 43.8108 24.9188 43.7305 24.617 43.7291C24.4303 43.7218 24.2443 43.7561 24.0724 43.8294C23.9005 43.9028 23.747 44.0133 23.623 44.1531V44.1521ZM15.167 30.3331C11.146 30.3286 7.29102 28.7293 4.44766 25.8861C1.6043 23.043 0.00479206 19.1881 2.78612e-05 15.1671C-0.00681724 13.1741 0.381712 11.1995 1.14316 9.35769C1.9046 7.51588 3.0238 5.84343 4.436 4.4371C5.84244 3.02469 7.5151 1.90525 9.35708 1.14364C11.1991 0.382027 13.1738 -0.00664992 15.167 8.60766e-05H40.834C44.855 0.00485027 48.71 1.60436 51.5531 4.44772C54.3963 7.29108 55.9955 11.1461 56 15.1671C56.0096 17.1601 55.6201 19.1348 54.8545 20.9749C54.0888 22.815 52.9625 24.4831 51.542 25.8811C50.4142 27.0218 49.1068 27.9698 47.672 28.6871C47.3525 28.8443 47.0011 28.9257 46.645 28.9251C46.2095 28.9262 45.7823 28.8059 45.4113 28.5777C45.0404 28.3494 44.7404 28.0223 44.545 27.6331C44.2778 27.079 44.2377 26.4423 44.4333 25.859C44.6289 25.2758 45.0447 24.792 45.592 24.5111H45.599C46.583 24.0206 47.4794 23.3712 48.252 22.5891C49.2332 21.6194 50.0111 20.4636 50.5399 19.1895C51.0688 17.9154 51.3381 16.5486 51.332 15.1691C51.3288 12.3853 50.2216 9.71639 48.2531 7.74795C46.2847 5.77951 43.6158 4.67227 40.832 4.66909H15.165C13.7862 4.66995 12.4211 4.94256 11.1477 5.4714C9.87438 6.00024 8.71779 6.77488 7.74405 7.75106C6.76313 8.7205 5.98552 9.87598 5.45681 11.1497C4.92811 12.4235 4.65891 13.79 4.66501 15.1691C4.66818 17.9529 5.77548 20.6217 7.74392 22.5902C9.71237 24.5586 12.3812 25.6659 15.165 25.6691H24.643C25.2617 25.6691 25.8551 25.9145 26.2931 26.3515C26.731 26.7885 26.9777 27.3814 26.979 28.0001C26.9782 28.6188 26.732 29.2119 26.2945 29.6493C25.8569 30.0866 25.2637 30.3326 24.645 30.3331H15.167ZM15.354 20.4981L15.345 20.4891L11.678 16.8221C11.2423 16.3853 10.9976 15.7935 10.9976 15.1766C10.9976 14.5597 11.2423 13.9679 11.678 13.5311C11.8937 13.3139 12.1504 13.1417 12.4331 13.0245C12.7158 12.9073 13.019 12.8473 13.325 12.8481C13.6308 12.8473 13.9337 12.9073 14.2161 13.0245C14.4985 13.1417 14.7547 13.314 14.97 13.5311L16.9991 15.5431L22.6761 9.86611C22.8927 9.64352 23.1519 9.46678 23.4383 9.34652C23.7247 9.22626 24.0324 9.16492 24.343 9.1661C24.6487 9.16506 24.9516 9.22462 25.2341 9.34133C25.5166 9.45805 25.7732 9.6296 25.989 9.84609C26.206 10.0617 26.3781 10.3181 26.4953 10.6007C26.6126 10.8832 26.6726 11.1862 26.672 11.4921C26.6726 11.798 26.6126 12.1009 26.4953 12.3834C26.3781 12.666 26.206 12.9225 25.989 13.1381L18.656 20.4711C18.4402 20.6915 18.1828 20.8668 17.8987 20.987C17.6146 21.1071 17.3095 21.1697 17.001 21.1711C16.3861 21.1678 15.7962 20.9275 15.354 20.5001V20.4981Z" fill="#2CE6D6"/>
</svg>
