<svg width="186" height="38" viewBox="0 0 186 38" fill="none" xmlns="http://www.w3.org/2000/svg">
<path d="M39.3294 28.9876C39.1031 28.9853 38.8785 29.0275 38.6685 29.1118C38.4586 29.1961 38.2672 29.3208 38.1056 29.4789C37.9439 29.637 37.815 29.8253 37.7262 30.0331C37.6375 30.2409 37.5906 30.4641 37.5883 30.69C37.5886 30.8804 37.6216 31.0694 37.686 31.2486C35.4939 33.4003 32.7859 34.9554 29.8205 35.7656C26.8551 36.5757 23.7311 36.6138 20.7468 35.8762C17.7624 35.1387 15.0172 33.6501 12.773 31.5525C10.5289 29.4549 8.86079 26.8184 7.92782 23.8944H10.5053C11.4475 26.4487 13.0484 28.7096 15.1462 30.4487C17.2441 32.1878 19.7646 33.3436 22.4532 33.7992C25.1417 34.2549 27.9032 33.9943 30.4586 33.0439C33.014 32.0934 35.2729 30.4867 37.007 28.386L37.0921 28.2796L35.8116 27.2992L33.8458 25.7957L32.5628 24.814C32.1763 25.2867 31.7459 25.7218 31.2772 26.1136C29.5121 27.5899 27.2818 28.3973 24.9789 28.3936C23.7176 28.4349 22.4609 28.2227 21.2835 27.7695C20.1061 27.3163 19.032 26.6314 18.1252 25.7555C17.2183 24.8796 16.4972 23.8306 16.0047 22.671C15.5123 21.5113 15.2585 20.2646 15.2585 19.005C15.2585 17.7455 15.5123 16.4988 16.0047 15.3391C16.4972 14.1794 17.2183 13.1305 18.1252 12.2546C19.032 11.3787 20.1061 10.6938 21.2835 10.2406C22.4609 9.78737 23.7176 9.57515 24.9789 9.61651C27.2818 9.61283 29.5121 10.4202 31.2772 11.8965C31.7459 12.2882 32.1763 12.7234 32.5628 13.1961L33.8458 12.2144L35.8116 10.7109L37.0921 9.73178L37.007 9.62536C36.6494 9.19179 36.2681 8.77823 35.8649 8.38657C34.0128 6.58992 31.7406 5.28326 29.2544 4.5851C26.7682 3.88693 24.1468 3.81936 21.6278 4.38853C19.1088 4.95771 16.7721 6.14561 14.8296 7.84446C12.8871 9.54331 11.4003 11.6993 10.504 14.117H7.92654C8.86134 11.1853 10.5351 8.54251 12.7873 6.44204C15.0395 4.34156 17.7945 2.85386 20.7883 2.12158C23.7821 1.38929 26.9142 1.437 29.8842 2.26012C32.8542 3.08324 35.5625 4.65417 37.7494 6.82225C37.6452 7.04336 37.591 7.28466 37.5908 7.52903C37.5835 7.87452 37.6795 8.21438 37.8665 8.5052C38.0535 8.79602 38.3231 9.02464 38.6408 9.16188C38.9586 9.29913 39.3101 9.33876 39.6505 9.27576C39.9909 9.21276 40.3048 9.04997 40.5521 8.80815C40.7995 8.56632 40.969 8.25643 41.0391 7.91802C41.1093 7.57962 41.0768 7.22802 40.9459 6.90811C40.8149 6.5882 40.5915 6.31447 40.3041 6.12185C40.0166 5.92923 39.6782 5.82646 39.3319 5.82664C39.238 5.82724 39.1442 5.83531 39.0515 5.85072C37.2218 3.99556 35.0396 2.52341 32.6328 1.52052C30.226 0.517627 27.6429 0.00411852 25.0347 0.0100916C20.4701 -0.020909 16.041 1.55755 12.5283 4.46716C9.01563 7.37677 6.64482 11.4307 5.83386 15.9144H11.6715C12.4224 12.9514 14.147 10.3254 16.5696 8.45622C18.9922 6.58703 21.9728 5.58266 25.0347 5.60371C28.5816 5.59402 31.9968 6.94384 34.5755 9.37457L32.5844 10.8946C30.4887 9.03795 27.7823 8.01504 24.9802 8.0205C22.1776 7.99814 19.4673 9.01938 17.3788 10.8848C15.2902 12.7501 13.9734 15.3257 13.6855 18.1083H3.13839C2.97485 17.8936 2.7637 17.7196 2.5215 17.6001C2.27929 17.4805 2.01262 17.4186 1.74241 17.4192C1.29006 17.4192 0.85623 17.5985 0.536365 17.9178C0.2165 18.2371 0.0368042 18.6701 0.0368042 19.1216C0.0368042 19.5731 0.2165 20.0061 0.536365 20.3253C0.85623 20.6446 1.29006 20.824 1.74241 20.824C2.05911 20.8252 2.37016 20.7404 2.64223 20.5786C2.91431 20.4168 3.13714 20.1842 3.28685 19.9056H13.6868C13.9747 22.6882 15.2915 25.2637 17.3801 27.1291C19.4686 28.9945 22.1789 30.0157 24.9814 29.9934C27.7836 29.9988 30.4899 28.9759 32.5856 27.1193L34.5768 28.6393C31.9981 31.07 28.5829 32.4199 25.036 32.4102C21.974 32.4312 18.9935 31.4269 16.5709 29.5577C14.1483 27.6885 12.4237 25.0625 11.6728 22.0995H5.83514C6.6461 26.5832 9.01689 30.6371 12.5296 33.5467C16.0423 36.4563 20.4714 38.0348 25.036 38.0038C30.22 38.0154 35.1977 35.9773 38.8802 32.3355C39.0279 32.3751 39.1802 32.3955 39.3332 32.3963C39.7856 32.3963 40.2194 32.2169 40.5393 31.8976C40.8591 31.5784 41.0388 31.1453 41.0388 30.6938C41.0388 30.2423 40.8591 29.8093 40.5393 29.4901C40.2194 29.1708 39.7856 28.9914 39.3332 28.9914L39.3294 28.9876Z" fill="#2DE6D6"/>
<path d="M40.4385 23.1952L44.0186 19.1001L40.4385 15.0049L36.8586 19.1001L40.4385 23.1952Z" fill="#2DE6D6"/>
<path d="M53.5848 16.4768C54.0904 16.1883 54.6649 16.0421 55.2472 16.0537C55.7544 16.0485 56.2573 16.1459 56.7257 16.34C57.1748 16.5296 57.5717 16.8241 57.8831 17.1988L59.5328 15.528C59.0179 14.9216 58.3712 14.4403 57.6419 14.1208C56.7902 13.7562 55.8663 13.5905 54.9407 13.6361C54.0151 13.6818 53.1121 13.9377 52.3005 14.3842C51.4387 14.8707 50.7224 15.5777 50.2256 16.4324C49.7289 17.3234 49.4683 18.3262 49.4683 19.3458C49.4683 20.3654 49.7289 21.3681 50.2256 22.2591C50.7198 23.1188 51.4364 23.8302 52.3005 24.3187C53.1121 24.7653 54.0151 25.0211 54.9407 25.0668C55.8663 25.1124 56.7902 24.9467 57.6419 24.5822C58.3713 24.2627 59.0179 23.7814 59.5328 23.1749L57.8831 21.5042C57.5716 21.8783 57.1747 22.1724 56.7257 22.3617C56.2573 22.556 55.7544 22.6533 55.2472 22.648C54.6649 22.6597 54.0904 22.5135 53.5848 22.2249C53.1086 21.9483 52.7195 21.5442 52.4616 21.0583C52.198 20.5267 52.0608 19.9415 52.0608 19.3483C52.0608 18.7551 52.198 18.1699 52.4616 17.6383C52.7213 17.155 53.1101 16.753 53.5848 16.4768Z" fill="white"/>
<path d="M68.2576 13.9258C67.7878 13.7221 67.2799 13.6206 66.7677 13.6281C66.2286 13.5918 65.6889 13.6913 65.1983 13.9172C64.7076 14.1432 64.2816 14.4884 63.9593 14.9214C63.939 14.9492 63.9212 14.9809 63.9022 15.01V13.8573H61.3806V24.8406H63.9022V18.7315C63.8698 18.356 63.9141 17.9778 64.0323 17.6199C64.1505 17.262 64.3403 16.9317 64.59 16.6491C64.9371 16.3415 65.3594 16.1309 65.8143 16.0386C66.2691 15.9463 66.7403 15.9755 67.1802 16.1234C67.4347 16.2217 67.6625 16.3783 67.8452 16.5807L69.495 14.8872C69.1585 14.4796 68.736 14.1513 68.2576 13.9258Z" fill="white"/>
<path d="M76.1956 21.0127L73.3757 13.8573H70.6016L74.7894 23.7373L72.0267 29.4183H74.8186L76.8593 24.9559L81.9723 13.8586H79.1804L76.1956 21.0127Z" fill="white"/>
<path d="M92.569 14.3944C91.7647 13.8828 90.8285 13.6165 89.8748 13.6281C89.1001 13.616 88.3349 13.8008 87.6514 14.1651C87.2184 14.4022 86.8315 14.715 86.5092 15.0885V13.8561H83.9876V29.4171H86.5092V23.6284C86.8263 23.9946 87.2068 24.3009 87.6324 24.5328C88.3237 24.8995 89.0971 25.0843 89.8799 25.0699C90.8324 25.0801 91.7678 24.8163 92.5741 24.3099C93.3776 23.8056 94.0341 23.0992 94.4776 22.2617C94.9372 21.3617 95.1768 20.366 95.1768 19.3559C95.1768 18.3459 94.9372 17.3502 94.4776 16.4502C94.0303 15.6117 93.3727 14.9033 92.569 14.3944ZM92.1794 21.0875C91.9279 21.5735 91.5472 21.981 91.0791 22.2655C90.5906 22.554 90.0311 22.7005 89.4636 22.6885C88.8922 22.6995 88.3289 22.5531 87.8354 22.2655C87.3635 21.9856 86.9818 21.5769 86.7351 21.0875C86.4782 20.5435 86.345 19.9497 86.345 19.3484C86.345 18.747 86.4782 18.1531 86.7351 17.6092C86.9817 17.1195 87.3635 16.7103 87.8354 16.4299C88.329 16.1425 88.8923 15.9962 89.4636 16.0069C90.031 15.9954 90.5904 16.1419 91.0791 16.4299C91.5473 16.7149 91.9279 17.1228 92.1794 17.6092C92.4435 18.1511 92.5806 18.7458 92.5806 19.3484C92.5806 19.9509 92.4435 20.5456 92.1794 21.0875Z" fill="white"/>
<path d="M101.798 9.2796H99.2709V13.8561H96.6338V16.1437H99.2709V24.8343H101.792V16.145H104.428V13.8574H101.792L101.798 9.2796Z" fill="white"/>
<path d="M114.527 14.383C113.635 13.8724 112.622 13.6099 111.593 13.623C110.571 13.6104 109.565 13.8753 108.682 14.3894C107.827 14.8845 107.113 15.5896 106.607 16.4376C106.09 17.3097 105.825 18.3073 105.839 19.3205C105.827 20.3407 106.092 21.3451 106.607 22.2263C107.108 23.0843 107.823 23.7979 108.682 24.2972C109.574 24.7998 110.581 25.0639 111.605 25.0639C112.63 25.0639 113.637 24.7998 114.529 24.2972C115.388 23.7979 116.103 23.0843 116.604 22.2263C117.119 21.345 117.384 20.3406 117.371 19.3205C117.385 18.3039 117.119 17.303 116.604 16.4262C116.101 15.5766 115.386 14.8724 114.527 14.383ZM114.379 21.0419C114.123 21.5325 113.734 21.9409 113.256 22.2199C112.75 22.5084 112.176 22.6546 111.593 22.643C111.019 22.6528 110.452 22.5066 109.954 22.2199C109.475 21.9411 109.086 21.5327 108.831 21.0419C108.557 20.5118 108.419 19.922 108.43 19.3256C108.417 18.7362 108.555 18.1534 108.831 17.632C109.091 17.1511 109.48 16.7513 109.954 16.4769C110.457 16.1993 111.023 16.0537 111.599 16.0537C112.174 16.0537 112.74 16.1993 113.243 16.4769C113.713 16.7558 114.101 17.1544 114.366 17.632C114.649 18.1511 114.791 18.7349 114.779 19.3256C114.789 19.922 114.653 20.5117 114.379 21.0419Z" fill="white"/>
<path d="M123.776 16.4768C124.282 16.1884 124.857 16.0422 125.439 16.0537C125.946 16.0485 126.449 16.1459 126.917 16.34C127.366 16.5296 127.763 16.8241 128.075 17.1988L129.725 15.528C129.21 14.9215 128.563 14.4402 127.834 14.1208C126.982 13.7562 126.058 13.5905 125.132 13.6361C124.207 13.6818 123.304 13.9377 122.492 14.3842C121.63 14.8708 120.914 15.5778 120.417 16.4324C119.921 17.3234 119.66 18.3261 119.66 19.3458C119.66 20.3654 119.921 21.3682 120.417 22.2591C120.912 23.1188 121.628 23.8301 122.492 24.3187C123.304 24.7653 124.207 25.0211 125.132 25.0668C126.058 25.1124 126.982 24.9467 127.834 24.5822C128.563 24.2628 129.21 23.7815 129.725 23.1749L128.075 21.5042C127.763 21.8783 127.366 22.1724 126.917 22.3617C126.449 22.556 125.946 22.6533 125.439 22.648C124.857 22.6596 124.282 22.5134 123.776 22.2249C123.3 21.9484 122.911 21.5443 122.653 21.0583C122.39 20.5267 122.252 19.9415 122.252 19.3483C122.252 18.7551 122.39 18.1699 122.653 17.6383C122.913 17.155 123.302 16.753 123.776 16.4768Z" fill="white"/>
<path d="M139.968 15.0885C139.648 14.7163 139.264 14.4041 138.834 14.1664C138.147 13.7992 137.378 13.6143 136.599 13.6293C135.645 13.6176 134.709 13.884 133.905 14.3957C133.102 14.9063 132.447 15.616 132.001 16.4553C131.542 17.3552 131.302 18.3509 131.302 19.361C131.302 20.3711 131.542 21.3668 132.001 22.2667C132.445 23.1043 133.101 23.8107 133.905 24.3149C134.711 24.8214 135.646 25.0853 136.599 25.0749C137.382 25.0893 138.155 24.9044 138.847 24.5379C139.272 24.3057 139.652 23.9994 139.97 23.6335V24.8469H142.491V13.8637H139.97L139.968 15.0885ZM139.269 21.7525C138.983 22.0626 138.633 22.3071 138.244 22.4692C137.854 22.6312 137.433 22.7069 137.011 22.6911C136.444 22.7031 135.884 22.5565 135.396 22.268C134.928 21.9837 134.547 21.5761 134.296 21.09C134.032 20.5481 133.895 19.9534 133.895 19.3509C133.895 18.7483 134.032 18.1536 134.296 17.6117C134.547 17.1253 134.928 16.7173 135.396 16.4325C135.885 16.1444 136.444 15.9979 137.011 16.0094C137.587 15.9959 138.154 16.1424 138.651 16.4325C139.118 16.7158 139.495 17.1245 139.74 17.6117C140.008 18.1517 140.142 18.7483 140.13 19.3509C140.164 20.2328 139.855 21.0938 139.268 21.7537L139.269 21.7525Z" fill="white"/>
<path d="M148.244 16.1449C148.609 15.9732 149.01 15.8944 149.413 15.9156C149.903 15.9062 150.389 16.008 150.834 16.2133C151.263 16.4232 151.638 16.7261 151.934 17.1L153.538 15.4976C153.1 14.8892 152.512 14.4044 151.83 14.0904C151.09 13.7651 150.288 13.6047 149.48 13.6204C148.737 13.6013 147.998 13.7417 147.314 14.0321C146.745 14.2782 146.26 14.6834 145.918 15.1987C145.579 15.7396 145.407 16.3685 145.425 17.0062C145.4 17.5694 145.544 18.1272 145.838 18.6086C146.107 19.0155 146.474 19.3496 146.904 19.5814C147.34 19.8185 147.802 20.0067 148.279 20.1425C148.761 20.2801 149.219 20.4136 149.655 20.5428C150.032 20.6459 150.391 20.8038 150.721 21.0114C150.852 21.094 150.958 21.2092 151.031 21.3456C151.103 21.482 151.139 21.6349 151.134 21.7892C151.137 21.9397 151.098 22.0883 151.021 22.2178C150.944 22.3473 150.832 22.4525 150.698 22.5213C150.299 22.7133 149.857 22.8004 149.414 22.7746C148.835 22.7843 148.261 22.6712 147.729 22.4428C147.22 22.2132 146.77 21.873 146.41 21.4471L144.805 23.0482C145.156 23.4751 145.574 23.8422 146.043 24.135C146.528 24.4372 147.053 24.6684 147.603 24.8215C148.177 24.9832 148.772 25.0642 149.368 25.0622C150.463 25.1216 151.543 24.7888 152.414 24.1236C152.784 23.8146 153.077 23.4248 153.272 22.9844C153.467 22.5441 153.558 22.0649 153.537 21.584C153.563 21.0099 153.419 20.441 153.125 19.9474C152.854 19.5322 152.489 19.187 152.059 18.9404C151.625 18.6894 151.163 18.4896 150.683 18.3451C150.202 18.1999 149.743 18.0664 149.307 17.9448C148.934 17.8489 148.575 17.7027 148.241 17.5103C148.114 17.4413 148.008 17.3386 147.935 17.2135C147.863 17.0883 147.826 16.9456 147.829 16.801C147.828 16.6636 147.867 16.5288 147.941 16.4126C148.014 16.2964 148.119 16.2035 148.244 16.1449Z" fill="white"/>
<path d="M158.651 13.8561H156.13V24.8393H158.651V13.8561Z" fill="white"/>
<path d="M157.39 8.82233C157.192 8.81683 156.995 8.85263 156.811 8.92743C156.628 9.00224 156.462 9.11443 156.324 9.25682C156.051 9.5489 155.898 9.93371 155.898 10.3335C155.898 10.7332 156.051 11.118 156.324 11.4101C156.611 11.6888 156.995 11.8447 157.396 11.8447C157.796 11.8447 158.18 11.6888 158.467 11.4101C158.734 11.1145 158.881 10.731 158.881 10.3335C158.881 9.93588 158.734 9.5524 158.467 9.25682C158.329 9.11253 158.161 8.99919 157.975 8.9243C157.79 8.84942 157.59 8.81466 157.39 8.82233Z" fill="white"/>
<path d="M169.754 14.2576C169.1 13.8334 168.334 13.6129 167.554 13.6243C166.787 13.6134 166.031 13.8071 165.365 14.1854C164.95 14.4248 164.582 14.7357 164.276 15.1037V13.8535H161.754V24.8368H164.271V18.5035C164.262 18.0482 164.373 17.5984 164.592 17.1988C164.799 16.8262 165.107 16.519 165.48 16.3122C165.881 16.094 166.331 15.9835 166.787 15.9917C167.12 15.9795 167.452 16.0362 167.762 16.1583C168.071 16.2804 168.352 16.4652 168.587 16.701C168.819 16.9398 169.001 17.223 169.121 17.5336C169.241 17.8442 169.298 18.1758 169.286 18.5086V24.8419H171.808V17.9537C171.805 17.2277 171.616 16.5145 171.257 15.8828C170.898 15.2256 170.382 14.6673 169.754 14.2576Z" fill="white"/>
<path d="M184.673 16.4337C184.172 15.5825 183.457 14.8766 182.599 14.3855C181.706 13.8748 180.693 13.6124 179.664 13.6255C178.642 13.6128 177.636 13.8777 176.753 14.3919C175.898 14.8871 175.184 15.5921 174.678 16.44C174.162 17.3122 173.896 18.3098 173.911 19.323C173.898 20.3431 174.163 21.3475 174.678 22.2287C175.179 23.0867 175.894 23.8003 176.753 24.2997C177.645 24.8023 178.652 25.0664 179.677 25.0664C180.701 25.0664 181.708 24.8023 182.6 24.2997C183.459 23.8003 184.174 23.0867 184.675 22.2287C185.19 21.3475 185.455 20.3431 185.442 19.323C185.455 18.308 185.189 17.309 184.673 16.4337ZM182.45 21.0444C182.195 21.535 181.805 21.9434 181.327 22.2224C180.821 22.5109 180.247 22.6571 179.664 22.6455C179.09 22.6553 178.523 22.5091 178.025 22.2224C177.546 21.9436 177.157 21.5351 176.902 21.0444C176.628 20.5143 176.49 19.9245 176.501 19.328C176.488 18.7387 176.626 18.1559 176.902 17.6345C177.162 17.1536 177.551 16.7538 178.025 16.4793C178.529 16.2015 179.095 16.0558 179.67 16.0558C180.246 16.0558 180.812 16.2015 181.316 16.4793C181.786 16.7583 182.173 17.157 182.439 17.6345C182.721 18.1536 182.864 18.7373 182.851 19.328C182.861 19.9237 182.723 20.5125 182.449 21.0419L182.45 21.0444Z" fill="white"/>
</svg>
