<svg width="148" height="30" viewBox="0 0 148 30" fill="none" xmlns="http://www.w3.org/2000/svg">
<path d="M31.8205 22.8852C31.6418 22.8833 31.4645 22.9166 31.2987 22.9832C31.1329 23.0497 30.9819 23.1482 30.8543 23.273C30.7266 23.3978 30.6249 23.5465 30.5548 23.7106C30.4847 23.8746 30.4477 24.0508 30.4459 24.2292C30.4461 24.3795 30.4722 24.5287 30.523 24.6702C28.7924 26.3689 26.6546 27.5966 24.3134 28.2362C21.9723 28.8757 19.506 28.9058 17.15 28.3235C14.7939 27.7413 12.6266 26.5661 10.8549 24.9101C9.08324 23.2541 7.76629 21.1726 7.02974 18.8642H9.06456C9.80844 20.8807 11.0723 22.6656 12.7285 24.0386C14.3847 25.4116 16.3745 26.3241 18.4971 26.6838C20.6197 27.0435 22.7998 26.8378 24.8172 26.0875C26.8346 25.3371 28.6179 24.0686 29.987 22.4102L30.0541 22.3262L29.0432 21.5522L27.4913 20.3652L26.4784 19.5902C26.1733 19.9634 25.8335 20.3069 25.4635 20.6162C24.07 21.7817 22.3092 22.4191 20.4911 22.4162C19.4954 22.4488 18.5032 22.2813 17.5737 21.9235C16.6442 21.5657 15.7962 21.025 15.0803 20.3335C14.3643 19.642 13.7951 18.8139 13.4063 17.8983C13.0175 16.9828 12.8171 15.9986 12.8171 15.0042C12.8171 14.0098 13.0175 13.0256 13.4063 12.11C13.7951 11.1945 14.3643 10.3663 15.0803 9.67485C15.7962 8.98336 16.6442 8.44265 17.5737 8.08486C18.5032 7.72707 19.4954 7.55953 20.4911 7.59218C22.3092 7.58927 24.07 8.22667 25.4635 9.39217C25.8335 9.70143 26.1733 10.045 26.4784 10.4182L27.4913 9.64318L29.0432 8.45617L30.0541 7.68319L29.987 7.59917C29.7047 7.25688 29.4037 6.93038 29.0853 6.62117C27.6231 5.20277 25.8293 4.1712 23.8665 3.62001C21.9038 3.06883 19.8342 3.01549 17.8455 3.46483C15.8569 3.91418 14.0121 4.852 12.4785 6.1932C10.9449 7.53439 9.77113 9.23653 9.06357 11.1452H7.02873C7.76673 8.83072 9.08811 6.74429 10.8661 5.08602C12.6442 3.42775 14.8193 2.25325 17.1828 1.67513C19.5463 1.09701 22.019 1.13467 24.3637 1.7845C26.7084 2.43433 28.8466 3.67454 30.5731 5.38619C30.4908 5.56075 30.448 5.75125 30.4479 5.94417C30.4421 6.21693 30.5179 6.48524 30.6655 6.71483C30.8132 6.94443 31.026 7.12491 31.2768 7.23326C31.5277 7.34162 31.8052 7.37291 32.0739 7.32317C32.3427 7.27343 32.5905 7.14491 32.7858 6.954C32.981 6.76309 33.1149 6.51843 33.1703 6.25127C33.2256 5.98411 33.2 5.70653 33.0966 5.45397C32.9933 5.20141 32.8169 4.98531 32.5899 4.83324C32.363 4.68117 32.0958 4.60004 31.8225 4.60018C31.7483 4.60066 31.6742 4.60702 31.6011 4.61919C30.1566 3.15459 28.4338 1.99237 26.5337 1.20061C24.6335 0.408852 22.5943 0.00345063 20.5352 0.00816625C16.9315 -0.0163079 13.4349 1.22985 10.6617 3.5269C7.88854 5.82396 6.01684 9.02444 5.37661 12.5642H9.98531C10.5781 10.225 11.9397 8.15184 13.8522 6.67617C15.7648 5.20049 18.1179 4.40756 20.5352 4.42418C23.3354 4.41653 26.0316 5.48217 28.0674 7.40117L26.4954 8.60118C24.8409 7.13542 22.7043 6.32786 20.4921 6.33217C18.2796 6.31452 16.1399 7.12077 14.491 8.59343C12.8422 10.0661 11.8026 12.0994 11.5753 14.2962H3.2486C3.1195 14.1267 2.9528 13.9894 2.76159 13.895C2.57037 13.8006 2.35984 13.7517 2.14652 13.7522C1.7894 13.7522 1.4469 13.8938 1.19438 14.1458C0.941853 14.3979 0.799988 14.7397 0.799988 15.0962C0.799988 15.4526 0.941853 15.7945 1.19438 16.0465C1.4469 16.2986 1.7894 16.4402 2.14652 16.4402C2.39654 16.4411 2.64211 16.3742 2.85691 16.2465C3.0717 16.1188 3.24762 15.9351 3.36581 15.7152H11.5763C11.8036 17.9119 12.8432 19.9453 14.492 21.4179C16.1409 22.8906 18.2806 23.6968 20.4931 23.6792C22.7053 23.6835 24.8419 22.8759 26.4964 21.4102L28.0684 22.6102C26.0326 24.5292 23.3364 25.5948 20.5362 25.5872C18.1189 25.6038 15.7658 24.8109 13.8532 23.3352C11.9406 21.8595 10.5791 19.7863 9.9863 17.4472H5.37762C6.01785 20.9869 7.88953 24.1874 10.6627 26.4845C13.4359 28.7815 16.9325 30.0277 20.5362 30.0032C24.6288 30.0123 28.5586 28.4034 31.4658 25.5282C31.5825 25.5595 31.7027 25.5756 31.8235 25.5762C32.1806 25.5762 32.5231 25.4346 32.7756 25.1825C33.0281 24.9305 33.17 24.5886 33.17 24.2322C33.17 23.8757 33.0281 23.5339 32.7756 23.2818C32.5231 23.0298 32.1806 22.8882 31.8235 22.8882L31.8205 22.8852Z" fill="white"/>
<path d="M32.6961 18.3122L35.5224 15.0792L32.6961 11.8462L29.8698 15.0792L32.6961 18.3122Z" fill="white"/>
<path d="M43.0747 13.0082C43.4739 12.7805 43.9275 12.6651 44.3872 12.6742C44.7875 12.6701 45.1846 12.747 45.5544 12.9002C45.9089 13.05 46.2223 13.2825 46.4681 13.5782L47.7705 12.2592C47.364 11.7805 46.8535 11.4005 46.2777 11.1482C45.6053 10.8604 44.8759 10.7296 44.1452 10.7656C43.4144 10.8017 42.7015 11.0037 42.0608 11.3562C41.3804 11.7403 40.815 12.2984 40.4227 12.9732C40.0306 13.6766 39.8249 14.4683 39.8249 15.2732C39.8249 16.0782 40.0306 16.8698 40.4227 17.5732C40.8129 18.252 41.3786 18.8135 42.0608 19.1992C42.7015 19.5518 43.4144 19.7538 44.1452 19.7898C44.8759 19.8259 45.6053 19.695 46.2777 19.4072C46.8535 19.155 47.3641 18.7751 47.7705 18.2962L46.4681 16.9772C46.2222 17.2726 45.9088 17.5048 45.5544 17.6542C45.1846 17.8076 44.7875 17.8845 44.3872 17.8802C43.9275 17.8895 43.4739 17.774 43.0747 17.5462C42.6988 17.3279 42.3916 17.0088 42.188 16.6252C41.9799 16.2055 41.8716 15.7435 41.8716 15.2752C41.8716 14.8069 41.9799 14.3449 42.188 13.9252C42.3931 13.5437 42.7 13.2263 43.0747 13.0082Z" fill="white"/>
<path d="M54.6586 10.9942C54.2876 10.8334 53.8867 10.7532 53.4823 10.7592C53.0567 10.7306 52.6306 10.8091 52.2433 10.9874C51.8559 11.1658 51.5196 11.4384 51.2652 11.7802C51.2491 11.8022 51.2351 11.8272 51.2201 11.8502V10.9402H49.2293V19.6112H51.2201V14.7882C51.1945 14.4918 51.2294 14.1932 51.3228 13.9106C51.4161 13.6281 51.5659 13.3673 51.7631 13.1442C52.0371 12.9013 52.3705 12.7351 52.7296 12.6622C53.0887 12.5893 53.4607 12.6124 53.8079 12.7292C54.0089 12.8067 54.1887 12.9304 54.3329 13.0902L55.6354 11.7532C55.3698 11.4315 55.0362 11.1723 54.6586 10.9942Z" fill="white"/>
<path d="M60.9253 16.589L58.6992 10.9399H56.509L59.8153 18.74L57.6341 23.2249H59.8383L61.4493 19.702L65.4859 10.9409H63.2818L60.9253 16.589Z" fill="white"/>
<path d="M73.8517 11.3642C73.2168 10.9604 72.4776 10.7501 71.7247 10.7592C71.1131 10.7497 70.509 10.8956 69.9694 11.1832C69.6275 11.3704 69.3221 11.6173 69.0677 11.9122V10.9393H67.0769V23.2243H69.0677V18.6542C69.318 18.9433 69.6184 19.1851 69.9544 19.3682C70.5001 19.6577 71.1108 19.8036 71.7287 19.7922C72.4807 19.8003 73.2192 19.592 73.8557 19.1922C74.4901 18.7941 75.0083 18.2365 75.3585 17.5752C75.7213 16.8648 75.9105 16.0787 75.9105 15.2812C75.9105 14.4838 75.7213 13.6977 75.3585 12.9873C75.0054 12.3253 74.4862 11.766 73.8517 11.3642ZM73.5441 16.6482C73.3456 17.0319 73.0451 17.3537 72.6755 17.5782C72.2899 17.806 71.8481 17.9217 71.4001 17.9122C70.949 17.9209 70.5042 17.8053 70.1146 17.5782C69.7421 17.3573 69.4407 17.0346 69.246 16.6482C69.0432 16.2188 68.938 15.75 68.938 15.2752C68.938 14.8005 69.0432 14.3316 69.246 13.9022C69.4407 13.5156 69.7421 13.1926 70.1146 12.9712C70.5043 12.7443 70.949 12.6288 71.4001 12.6372C71.848 12.6282 72.2897 12.7439 72.6755 12.9712C73.0451 13.1962 73.3456 13.5183 73.5441 13.9022C73.7526 14.33 73.8609 14.7995 73.8609 15.2752C73.8609 15.751 73.7526 16.2204 73.5441 16.6482Z" fill="white"/>
<path d="M81.1375 7.32617H79.1427V10.9392H77.0608V12.7452H79.1427V19.6062H81.1334V12.7462H83.2144V10.9402H81.1334L81.1375 7.32617Z" fill="white"/>
<path d="M91.1874 11.3553C90.4829 10.9521 89.683 10.7449 88.871 10.7553C88.0641 10.7453 87.2697 10.9544 86.5727 11.3603C85.8975 11.7512 85.3336 12.3078 84.9346 12.9773C84.5265 13.6658 84.3168 14.4534 84.3284 15.2533C84.3183 16.0586 84.5278 16.8516 84.9346 17.5473C85.3295 18.2247 85.894 18.788 86.5727 19.1823C87.2769 19.579 88.0719 19.7875 88.8805 19.7875C89.6892 19.7875 90.4841 19.579 91.1884 19.1823C91.867 18.788 92.4315 18.2246 92.8265 17.5473C93.233 16.8516 93.4426 16.0586 93.4326 15.2533C93.4432 14.4507 93.2335 13.6605 92.8265 12.9683C92.4298 12.2975 91.8649 11.7416 91.1874 11.3553ZM91.0701 16.6123C90.8684 16.9996 90.561 17.322 90.1835 17.5423C89.7843 17.77 89.3307 17.8855 88.871 17.8763C88.4172 17.884 87.9698 17.7686 87.5766 17.5423C87.1989 17.3222 86.8914 16.9997 86.6899 16.6123C86.4735 16.1938 86.3648 15.7281 86.3733 15.2573C86.3633 14.792 86.4723 14.3318 86.6899 13.9203C86.8956 13.5405 87.2025 13.2249 87.5766 13.0083C87.9741 12.7891 88.4209 12.6742 88.875 12.6742C89.3292 12.6742 89.7759 12.7891 90.1734 13.0083C90.5448 13.2285 90.8508 13.5432 91.0601 13.9203C91.2834 14.33 91.3956 14.7909 91.3857 15.2573C91.394 15.7281 91.2862 16.1937 91.0701 16.6123Z" fill="white"/>
<path d="M98.4892 13.0082C98.8884 12.7806 99.3419 12.6651 99.8016 12.6742C100.202 12.6701 100.599 12.747 100.969 12.9002C101.323 13.05 101.637 13.2825 101.883 13.5782L103.185 12.2592C102.779 11.7804 102.268 11.4004 101.692 11.1482C101.02 10.8604 100.29 10.7296 99.5597 10.7656C98.8289 10.8017 98.116 11.0037 97.4752 11.3562C96.7949 11.7404 96.2296 12.2985 95.8372 12.9732C95.445 13.6766 95.2392 14.4683 95.2392 15.2732C95.2392 16.0782 95.445 16.8698 95.8372 17.5732C96.2274 18.2519 96.7931 18.8134 97.4752 19.1992C98.116 19.5518 98.8289 19.7538 99.5597 19.7898C100.29 19.8259 101.02 19.695 101.692 19.4072C102.268 19.1551 102.779 18.7751 103.185 18.2962L101.883 16.9772C101.637 17.2726 101.323 17.5048 100.969 17.6542C100.599 17.8076 100.202 17.8845 99.8016 17.8802C99.3419 17.8894 98.8883 17.774 98.4892 17.5462C98.1132 17.3279 97.8061 17.0089 97.6025 16.6252C97.3943 16.2056 97.2859 15.7436 97.2859 15.2752C97.2859 14.8069 97.3943 14.3449 97.6025 13.9252C97.8075 13.5437 98.1144 13.2263 98.4892 13.0082Z" fill="white"/>
<path d="M111.272 11.912C111.019 11.6181 110.716 11.3716 110.377 11.184C109.835 10.8941 109.227 10.7481 108.612 10.7599C107.859 10.7507 107.12 10.961 106.485 11.365C105.852 11.7681 105.334 12.3283 104.982 12.991C104.62 13.7014 104.43 14.4875 104.43 15.2849C104.43 16.0824 104.62 16.8685 104.982 17.5789C105.333 18.2402 105.851 18.7979 106.485 19.196C107.122 19.5958 107.86 19.8041 108.612 19.796C109.23 19.8073 109.841 19.6613 110.387 19.3719C110.723 19.1887 111.023 18.9469 111.273 18.658V19.616H113.264V10.9449H111.273L111.272 11.912ZM110.72 17.1729C110.495 17.4178 110.218 17.6108 109.911 17.7388C109.603 17.8667 109.271 17.9265 108.938 17.914C108.49 17.9234 108.048 17.8077 107.662 17.58C107.293 17.3555 106.992 17.0337 106.794 16.65C106.585 16.2221 106.477 15.7526 106.477 15.2769C106.477 14.8012 106.585 14.3318 106.794 13.904C106.992 13.5199 107.293 13.1978 107.662 12.973C108.048 12.7455 108.49 12.6299 108.938 12.6389C109.392 12.6283 109.84 12.7439 110.232 12.973C110.601 13.1967 110.899 13.5193 111.092 13.904C111.304 14.3303 111.409 14.8012 111.4 15.2769C111.427 15.9732 111.183 16.6529 110.719 17.1739L110.72 17.1729Z" fill="white"/>
<path d="M117.806 12.7463C118.093 12.6108 118.41 12.5486 118.728 12.5653C119.115 12.5579 119.499 12.6383 119.85 12.8003C120.189 12.966 120.485 13.2052 120.719 13.5003L121.985 12.2353C121.64 11.755 121.175 11.3722 120.637 11.1243C120.053 10.8675 119.42 10.7409 118.781 10.7533C118.195 10.7382 117.611 10.849 117.071 11.0783C116.622 11.2726 116.24 11.5925 115.969 11.9993C115.702 12.4264 115.566 12.9228 115.58 13.4263C115.561 13.8709 115.674 14.3113 115.906 14.6913C116.119 15.0126 116.408 15.2764 116.748 15.4593C117.092 15.6465 117.456 15.7951 117.834 15.9023C118.214 16.011 118.576 16.1163 118.92 16.2183C119.217 16.2997 119.5 16.4244 119.761 16.5883C119.864 16.6535 119.949 16.7445 120.006 16.8522C120.063 16.9598 120.091 17.0805 120.087 17.2023C120.09 17.3212 120.059 17.4385 119.998 17.5407C119.938 17.6429 119.849 17.726 119.743 17.7803C119.428 17.9319 119.079 18.0007 118.729 17.9803C118.272 17.988 117.819 17.8987 117.399 17.7183C116.997 17.5371 116.642 17.2685 116.358 16.9323L115.09 18.1963C115.368 18.5333 115.698 18.8231 116.068 19.0543C116.451 19.2929 116.865 19.4754 117.3 19.5963C117.753 19.7239 118.222 19.7878 118.693 19.7863C119.558 19.8332 120.41 19.5704 121.098 19.0453C121.39 18.8013 121.622 18.4936 121.775 18.1459C121.929 17.7983 122.001 17.42 121.984 17.0403C122.005 16.5871 121.892 16.138 121.659 15.7483C121.445 15.4205 121.157 15.148 120.817 14.9533C120.475 14.7551 120.11 14.5974 119.731 14.4833C119.351 14.3687 118.989 14.2633 118.645 14.1673C118.35 14.0916 118.067 13.9762 117.804 13.8243C117.703 13.7698 117.619 13.6887 117.562 13.5899C117.505 13.4911 117.475 13.3785 117.478 13.2643C117.477 13.1558 117.508 13.0494 117.566 12.9577C117.624 12.8659 117.707 12.7926 117.806 12.7463Z" fill="white"/>
<path d="M126.022 10.939H124.031V19.61H126.022V10.939Z" fill="white"/>
<path d="M125.026 6.96518C124.87 6.96084 124.714 6.9891 124.569 7.04815C124.424 7.10721 124.293 7.19579 124.185 7.3082C123.969 7.53879 123.849 7.84258 123.849 8.15817C123.849 8.47376 123.969 8.77758 124.185 9.00818C124.411 9.22815 124.715 9.35123 125.031 9.35123C125.347 9.35123 125.65 9.22815 125.877 9.00818C126.087 8.77482 126.203 8.47204 126.203 8.15817C126.203 7.8443 126.087 7.54155 125.877 7.3082C125.767 7.19429 125.635 7.1048 125.488 7.04568C125.342 6.98656 125.184 6.95912 125.026 6.96518Z" fill="white"/>
<path d="M134.788 11.2562C134.271 10.9213 133.666 10.7472 133.05 10.7562C132.445 10.7476 131.848 10.9005 131.322 11.1992C130.995 11.3882 130.704 11.6337 130.462 11.9242V10.9372H128.472V19.6082H130.458V14.6082C130.452 14.2487 130.539 13.8937 130.712 13.5782C130.876 13.284 131.119 13.0415 131.413 12.8782C131.729 12.7059 132.085 12.6188 132.445 12.6252C132.708 12.6156 132.97 12.6604 133.214 12.7568C133.459 12.8531 133.681 12.999 133.866 13.1852C134.049 13.3737 134.193 13.5973 134.288 13.8425C134.383 14.0877 134.427 14.3495 134.418 14.6122V19.6122H136.409V14.1742C136.407 13.601 136.257 13.0379 135.974 12.5392C135.691 12.0204 135.283 11.5796 134.788 11.2562Z" fill="white"/>
<path d="M146.566 12.9742C146.17 12.3022 145.605 11.7449 144.928 11.3572C144.223 10.954 143.423 10.7468 142.611 10.7572C141.804 10.7471 141.01 10.9563 140.313 11.3622C139.638 11.7532 139.074 12.3098 138.675 12.9792C138.267 13.6677 138.057 14.4553 138.069 15.2552C138.059 16.0606 138.268 16.8535 138.675 17.5492C139.07 18.2265 139.634 18.7899 140.313 19.1842C141.017 19.581 141.812 19.7895 142.621 19.7895C143.43 19.7895 144.224 19.581 144.929 19.1842C145.607 18.7899 146.172 18.2265 146.567 17.5492C146.973 16.8535 147.183 16.0606 147.173 15.2552C147.182 14.4539 146.973 13.6652 146.566 12.9742ZM144.811 16.6142C144.609 17.0015 144.301 17.3239 143.924 17.5442C143.525 17.772 143.071 17.8874 142.611 17.8782C142.157 17.886 141.71 17.7705 141.317 17.5442C140.939 17.3241 140.632 17.0016 140.43 16.6142C140.214 16.1957 140.105 15.7301 140.114 15.2592C140.104 14.7939 140.213 14.3338 140.43 13.9222C140.636 13.5425 140.943 13.2269 141.317 13.0102C141.715 12.7909 142.161 12.6759 142.616 12.6759C143.07 12.6759 143.517 12.7909 143.915 13.0102C144.286 13.2305 144.592 13.5452 144.801 13.9222C145.025 14.332 145.137 14.7928 145.127 15.2592C145.135 15.7294 145.026 16.1943 144.809 16.6122L144.811 16.6142Z" fill="white"/>
</svg>
