<svg width="177" height="30" viewBox="0 0 177 30" fill="none" xmlns="http://www.w3.org/2000/svg">
<g clip-path="url(#clip0_1075_6172)">
<path d="M44.6099 23.7102H48.0729V10.1426H52.6033V6.86932H40.127V10.1426H44.6099V23.7102Z" fill="#C3C9D6"/>
<path d="M52.6074 23.7102H55.857V18.0412C55.857 16.0724 56.8769 14.8864 58.4187 14.8864C58.9642 14.8864 59.3912 14.9813 59.8893 15.1474V11.8504C59.4861 11.7318 59.154 11.7081 58.7982 11.7081C57.4699 11.7081 56.2602 12.5857 55.857 13.748V11.8504H52.6074V23.7102Z" fill="#C3C9D6"/>
<path d="M66.1268 23.971C67.7635 23.971 68.9969 23.1409 69.5425 22.3819V23.7102H72.792V11.8503H69.5425V13.1786C68.9969 12.4196 67.7635 11.5895 66.1268 11.5895C62.9721 11.5895 60.5527 14.4358 60.5527 17.7802C60.5527 21.1247 62.9721 23.971 66.1268 23.971ZM66.8147 21.0061C65.012 21.0061 63.826 19.6541 63.826 17.7802C63.826 15.9064 65.012 14.5544 66.8147 14.5544C68.6174 14.5544 69.8034 15.9064 69.8034 17.7802C69.8034 19.6541 68.6174 21.0061 66.8147 21.0061Z" fill="#C3C9D6"/>
<path d="M80.5291 23.9711C82.1657 23.9711 83.3991 23.1409 83.9447 22.3819V23.7102H87.1943V5.92053H83.9447V13.1786C83.3991 12.4197 82.1657 11.5895 80.5291 11.5895C77.3745 11.5895 74.9551 14.4358 74.9551 17.7802C74.9551 21.1247 77.3745 23.9711 80.5291 23.9711ZM81.2169 21.0061C79.4142 21.0061 78.2283 19.6541 78.2283 17.7802C78.2283 15.9064 79.4142 14.5544 81.2169 14.5544C83.0196 14.5544 84.2056 15.9064 84.2056 17.7802C84.2056 19.6541 83.0196 21.0061 81.2169 21.0061Z" fill="#C3C9D6"/>
<path d="M91.7296 9.90538C92.8918 9.90538 93.8169 8.98032 93.8169 7.84179C93.8169 6.70326 92.8918 5.7782 91.7296 5.7782C90.6147 5.7782 89.666 6.70326 89.666 7.84179C89.666 8.98032 90.6147 9.90538 91.7296 9.90538ZM90.1166 23.7101H93.3662V11.8503H90.1166V23.7101Z" fill="#C3C9D6"/>
<path d="M96.248 23.7102H99.4976V17.9226C99.4976 15.6455 100.612 14.5544 102.13 14.5544C103.482 14.5544 104.218 15.598 104.218 17.3059V23.7102H107.467V16.7603C107.467 13.6767 105.76 11.5895 102.889 11.5895C101.348 11.5895 100.138 12.2537 99.4976 13.2024V11.8503H96.248V23.7102Z" fill="#C3C9D6"/>
<path d="M115.737 20.6266C114.1 20.6266 112.724 19.3932 112.724 17.5905C112.724 15.7641 114.1 14.5544 115.737 14.5544C117.373 14.5544 118.749 15.7641 118.749 17.5905C118.749 19.3932 117.373 20.6266 115.737 20.6266ZM115.357 28.9047C118.986 28.9047 121.738 27.0545 121.738 22.7851V11.8503H118.488V13.1786C117.848 12.2537 116.567 11.5895 115.049 11.5895C111.942 11.5895 109.451 14.246 109.451 17.5905C109.451 20.9112 111.942 23.5677 115.049 23.5677C116.567 23.5677 117.848 22.88 118.488 22.0023V22.8088C118.488 24.7063 117.231 26.0583 115.31 26.0583C113.982 26.0583 112.653 25.6076 111.61 24.5877L109.831 27.0071C111.183 28.3117 113.294 28.9047 115.357 28.9047Z" fill="#C3C9D6"/>
<path d="M128.608 23.7102H131.668L138.641 6.86932H134.847L130.15 18.563L125.383 6.86932H121.658L128.608 23.7102Z" fill="#C3C9D6"/>
<path d="M141.623 9.90538C142.786 9.90538 143.712 8.98032 143.712 7.84179C143.712 6.70326 142.786 5.7782 141.623 5.7782C140.508 5.7782 139.561 6.70326 139.561 7.84179C139.561 8.98032 140.508 9.90538 141.623 9.90538ZM140.011 23.7101H143.261V11.8503H140.011V23.7101Z" fill="#C3C9D6"/>
<path d="M151.671 23.971C154.162 23.971 156.059 22.9274 157.173 21.3145L154.755 19.5118C154.209 20.342 153.188 21.0061 151.694 21.0061C150.129 21.0061 148.729 20.1285 148.54 18.5393H157.41C157.482 18.0412 157.458 17.7091 157.458 17.4245C157.458 13.5581 154.73 11.5895 151.623 11.5895C148.018 11.5895 145.385 14.2697 145.385 17.7802C145.385 21.528 148.136 23.971 151.671 23.971ZM148.658 16.3333C148.967 14.8864 150.319 14.2697 151.528 14.2697C152.738 14.2697 153.924 14.9102 154.208 16.3333H148.658Z" fill="#C3C9D6"/>
<path d="M169.632 23.7101H172.858L176.772 11.8503H173.285L171.056 19.4406L168.636 11.8503H166.145L163.75 19.4406L161.497 11.8503H158.033L161.971 23.7101H165.197L167.402 16.9738L169.632 23.7101Z" fill="#C3C9D6"/>
<path fill-rule="evenodd" clip-rule="evenodd" d="M13.902 23.7182H7.66054V13.1077H0.794922V6.86621H13.902V23.7182ZM23.2642 10.6111C23.2642 12.6793 21.5876 14.356 19.5194 14.356C17.4511 14.356 15.7745 12.6793 15.7745 10.6111C15.7745 8.54285 17.4511 6.86621 19.5194 6.86621C21.5876 6.86621 23.2642 8.54285 23.2642 10.6111ZM19.5194 23.7182L26.6971 6.86621H34.1868L27.0091 23.7182H19.5194Z" fill="#C3C9D6"/>
</g>
<defs>
<clipPath id="clip0_1075_6172">
<rect width="176.031" height="30" fill="white" transform="translate(0.794922)"/>
</clipPath>
</defs>
</svg>
